<svg width="127" height="15" viewBox="0 0 127 15" fill="none" xmlns="http://www.w3.org/2000/svg">
<path d="M3.84977 9.04C4.40977 9.04 4.81577 8.93733 5.06777 8.732C5.32911 8.52667 5.45977 8.20933 5.45977 7.78C5.45977 7.08 4.94644 6.73 3.91977 6.73H3.34577C3.26177 6.73 3.21977 6.772 3.21977 6.856V8.844C3.21977 8.928 3.25711 8.97933 3.33177 8.998C3.49977 9.026 3.67244 9.04 3.84977 9.04ZM3.21977 2.936V4.644C3.21977 4.728 3.26177 4.77 3.34577 4.77H3.63977C4.71311 4.77 5.24977 4.42 5.24977 3.72C5.24977 3.06667 4.78311 2.74 3.84977 2.74C3.67244 2.74 3.49977 2.754 3.33177 2.782C3.25711 2.80067 3.21977 2.852 3.21977 2.936ZM5.68377 5.624C6.40244 5.71733 6.97644 5.99267 7.40577 6.45C7.83511 6.90733 8.04977 7.444 8.04977 8.06C8.04977 9.11467 7.70444 9.894 7.01377 10.398C6.33244 10.8927 5.23111 11.14 3.70977 11.14C2.93511 11.14 2.12777 11.1027 1.28777 11.028C1.06377 11.0093 0.87244 10.916 0.713773 10.748C0.56444 10.5707 0.489774 10.3653 0.489774 10.132V1.648C0.489774 1.424 0.56444 1.22333 0.713773 1.046C0.863107 0.868666 1.04977 0.770666 1.27377 0.751999C2.06711 0.677333 2.83244 0.64 3.56977 0.64C6.36977 0.64 7.76977 1.52667 7.76977 3.3C7.76977 3.89733 7.57844 4.406 7.19577 4.826C6.82244 5.23667 6.31844 5.49333 5.68377 5.596C5.67444 5.596 5.66977 5.60067 5.66977 5.61C5.66977 5.61933 5.67444 5.624 5.68377 5.624ZM14.4005 3.748C14.6152 3.72 14.8019 3.78533 14.9605 3.944C15.1192 4.10267 15.1985 4.294 15.1985 4.518V4.882C15.1985 5.09667 15.1239 5.28333 14.9745 5.442C14.8252 5.59133 14.6385 5.68 14.4145 5.708C13.6959 5.80133 13.1219 6.072 12.6925 6.52C12.2632 6.95867 12.0485 7.49533 12.0485 8.13V10.202C12.0485 10.4167 11.9692 10.6033 11.8105 10.762C11.6519 10.9207 11.4652 11 11.2505 11H10.1165C9.90186 11 9.71519 10.9207 9.55652 10.762C9.39786 10.6033 9.31852 10.4167 9.31852 10.202V4.518C9.31852 4.30333 9.39786 4.11667 9.55652 3.958C9.71519 3.79933 9.90186 3.72 10.1165 3.72H11.1805C11.3952 3.72 11.5819 3.79933 11.7405 3.958C11.8992 4.11667 11.9785 4.30333 11.9785 4.518V5.106C11.9785 5.11533 11.9832 5.12 11.9925 5.12C12.0019 5.12 12.0112 5.11533 12.0205 5.106C12.6085 4.33133 13.4019 3.87867 14.4005 3.748ZM20.6282 6.66C20.7122 6.66 20.7542 6.618 20.7542 6.534C20.7449 6.10467 20.6516 5.79667 20.4742 5.61C20.3062 5.42333 20.0496 5.33 19.7042 5.33C19.3402 5.33 19.0649 5.42333 18.8782 5.61C18.7009 5.78733 18.5889 6.1 18.5422 6.548C18.5422 6.62267 18.5796 6.66 18.6542 6.66H20.6282ZM19.6342 3.58C22.0049 3.58 23.1949 4.83067 23.2042 7.332C23.2042 7.556 23.1202 7.74733 22.9522 7.906C22.7842 8.05533 22.5836 8.13 22.3502 8.13H18.6822C18.5982 8.13 18.5656 8.172 18.5842 8.256C18.6682 8.648 18.8502 8.92333 19.1302 9.082C19.4196 9.24067 19.8676 9.32 20.4742 9.32C20.8569 9.32 21.3236 9.264 21.8742 9.152C22.0702 9.10533 22.2476 9.14733 22.4062 9.278C22.5649 9.39933 22.6442 9.56267 22.6442 9.768V9.992C22.6442 10.2253 22.5696 10.44 22.4202 10.636C22.2802 10.8227 22.0982 10.9347 21.8742 10.972C21.3049 11.084 20.6982 11.14 20.0542 11.14C18.7289 11.14 17.7069 10.818 16.9882 10.174C16.2789 9.52067 15.9242 8.58267 15.9242 7.36C15.9242 6.14667 16.2416 5.21333 16.8762 4.56C17.5109 3.90667 18.4302 3.58 19.6342 3.58ZM28.539 8.06V7.976C28.539 7.892 28.497 7.85 28.413 7.85H27.979C27.0457 7.85 26.579 8.13 26.579 8.69C26.579 9.11 26.8123 9.32 27.279 9.32C27.643 9.32 27.9417 9.208 28.175 8.984C28.4177 8.75067 28.539 8.44267 28.539 8.06ZM27.699 3.58C28.931 3.58 29.8223 3.804 30.373 4.252C30.9237 4.7 31.199 5.40933 31.199 6.38V10.202C31.199 10.4167 31.1197 10.6033 30.961 10.762C30.8023 10.9207 30.6157 11 30.401 11H29.519C29.295 11 29.1037 10.9253 28.945 10.776C28.7863 10.6173 28.7023 10.426 28.693 10.202V10.09C28.693 10.0807 28.6883 10.076 28.679 10.076C28.6697 10.076 28.6603 10.0807 28.651 10.09C28.0537 10.79 27.3163 11.14 26.439 11.14C25.7857 11.14 25.249 10.9347 24.829 10.524C24.409 10.104 24.199 9.56267 24.199 8.9C24.199 7.22 25.459 6.38 27.979 6.38H28.413C28.497 6.38 28.539 6.338 28.539 6.254V6.24C28.539 5.68 28.2123 5.4 27.559 5.4C26.999 5.4 26.2757 5.484 25.389 5.652C25.193 5.68933 25.0157 5.64733 24.857 5.526C24.6983 5.39533 24.619 5.22733 24.619 5.022V4.798C24.619 4.56467 24.689 4.35467 24.829 4.168C24.9783 3.98133 25.165 3.86933 25.389 3.832C26.313 3.664 27.083 3.58 27.699 3.58ZM37.7888 7.318L40.0428 10.356C40.1362 10.4867 40.1455 10.6267 40.0708 10.776C39.9962 10.9253 39.8795 11 39.7208 11H38.3068C37.7655 11 37.3455 10.7853 37.0468 10.356L35.6608 8.354C35.6608 8.34467 35.6515 8.34 35.6328 8.34C35.6235 8.34 35.6188 8.34467 35.6188 8.354V10.202C35.6188 10.4167 35.5395 10.6033 35.3808 10.762C35.2222 10.9207 35.0355 11 34.8208 11H33.7568C33.5422 11 33.3555 10.9207 33.1968 10.762C33.0382 10.6033 32.9588 10.4167 32.9588 10.202V1.298C32.9588 1.08333 33.0382 0.896666 33.1968 0.737999C33.3555 0.579333 33.5422 0.499999 33.7568 0.499999H34.8208C35.0355 0.499999 35.2222 0.579333 35.3808 0.737999C35.5395 0.896666 35.6188 1.08333 35.6188 1.298V6.226C35.6188 6.23533 35.6235 6.24 35.6328 6.24L35.6608 6.226L37.0328 4.364C37.3408 3.93467 37.7655 3.72 38.3068 3.72H39.7208C39.8795 3.72 39.9962 3.79 40.0708 3.93C40.1455 4.07 40.1315 4.20533 40.0288 4.336L37.7888 7.122C37.7422 7.18733 37.7422 7.25267 37.7888 7.318ZM43.7568 3.72C43.9714 3.72 44.1581 3.79933 44.3168 3.958C44.4754 4.11667 44.5548 4.30333 44.5548 4.518V10.202C44.5548 10.4167 44.4754 10.6033 44.3168 10.762C44.1581 10.9207 43.9714 11 43.7568 11H42.5528C42.3381 11 42.1514 10.9207 41.9928 10.762C41.8341 10.6033 41.7548 10.4167 41.7548 10.202V4.518C41.7548 4.30333 41.8341 4.11667 41.9928 3.958C42.1514 3.79933 42.3381 3.72 42.5528 3.72H43.7568ZM43.7568 0.499999C43.9714 0.499999 44.1581 0.579333 44.3168 0.737999C44.4754 0.896666 44.5548 1.08333 44.5548 1.298V1.662C44.5548 1.87667 44.4754 2.06333 44.3168 2.222C44.1581 2.38067 43.9714 2.46 43.7568 2.46H42.5528C42.3381 2.46 42.1514 2.38067 41.9928 2.222C41.8341 2.06333 41.7548 1.87667 41.7548 1.662V1.298C41.7548 1.08333 41.8341 0.896666 41.9928 0.737999C42.1514 0.579333 42.3381 0.499999 42.5528 0.499999H43.7568ZM49.2197 4.63C49.7984 3.93 50.5124 3.58 51.3617 3.58C52.2111 3.58 52.8177 3.82267 53.1817 4.308C53.5551 4.79333 53.7417 5.624 53.7417 6.8V10.202C53.7417 10.4167 53.6624 10.6033 53.5037 10.762C53.3451 10.9207 53.1584 11 52.9437 11H51.9497C51.7351 11 51.5484 10.9207 51.3897 10.762C51.2311 10.6033 51.1517 10.4167 51.1517 10.202V6.8C51.1517 6.37067 51.0911 6.07667 50.9697 5.918C50.8484 5.75933 50.6291 5.68 50.3117 5.68C50.0504 5.68 49.8077 5.78267 49.5837 5.988C49.3691 6.19333 49.2617 6.41733 49.2617 6.66V10.202C49.2617 10.4167 49.1824 10.6033 49.0237 10.762C48.8651 10.9207 48.6784 11 48.4637 11H47.3997C47.1851 11 46.9984 10.9207 46.8397 10.762C46.6811 10.6033 46.6017 10.4167 46.6017 10.202V4.518C46.6017 4.30333 46.6811 4.11667 46.8397 3.958C46.9984 3.79933 47.1851 3.72 47.3997 3.72H48.3517C48.5757 3.72 48.7671 3.79933 48.9257 3.958C49.0844 4.10733 49.1684 4.294 49.1777 4.518V4.63C49.1777 4.63933 49.1824 4.644 49.1917 4.644C49.2104 4.644 49.2197 4.63933 49.2197 4.63ZM59.8438 7.85V6.66C59.8438 6.33333 59.7364 6.06733 59.5218 5.862C59.3071 5.64733 59.0411 5.54 58.7238 5.54C57.9771 5.54 57.6038 6.1 57.6038 7.22C57.6038 7.752 57.7018 8.15333 57.8978 8.424C58.1031 8.69467 58.3784 8.83 58.7238 8.83C59.0318 8.83 59.2931 8.732 59.5078 8.536C59.7318 8.34 59.8438 8.11133 59.8438 7.85ZM61.6358 3.72C61.8504 3.72 62.0371 3.79933 62.1958 3.958C62.3544 4.11667 62.4338 4.30333 62.4338 4.518V10.3C62.4338 11.5507 62.0511 12.5167 61.2858 13.198C60.5298 13.8793 59.4658 14.22 58.0938 14.22C57.5618 14.22 57.0298 14.178 56.4978 14.094C56.2738 14.0567 56.0871 13.9447 55.9378 13.758C55.7884 13.5807 55.7138 13.3753 55.7138 13.142V12.568C55.7138 12.372 55.7884 12.218 55.9378 12.106C56.0964 12.0033 56.2738 11.9753 56.4698 12.022C56.8898 12.134 57.3844 12.19 57.9538 12.19C58.6071 12.19 59.0831 12.0453 59.3818 11.756C59.6898 11.4667 59.8438 10.9813 59.8438 10.3V9.95C59.8438 9.94067 59.8391 9.936 59.8298 9.936C59.8111 9.936 59.8018 9.94067 59.8018 9.95C59.2978 10.51 58.6351 10.79 57.8138 10.79C57.0018 10.79 56.3298 10.4727 55.7978 9.838C55.2751 9.194 55.0138 8.32133 55.0138 7.22C55.0138 6.06267 55.2658 5.16667 55.7698 4.532C56.2831 3.89733 56.9644 3.58 57.8138 3.58C58.6258 3.58 59.3164 3.93 59.8858 4.63C59.8951 4.63933 59.9044 4.644 59.9138 4.644C59.9231 4.644 59.9278 4.63933 59.9278 4.63V4.518C59.9371 4.294 60.0211 4.10733 60.1798 3.958C60.3384 3.79933 60.5298 3.72 60.7538 3.72H61.6358ZM71.8674 9.04C72.4274 9.04 72.8334 8.93733 73.0854 8.732C73.3467 8.52667 73.4774 8.20933 73.4774 7.78C73.4774 7.08 72.964 6.73 71.9374 6.73H71.3634C71.2794 6.73 71.2374 6.772 71.2374 6.856V8.844C71.2374 8.928 71.2747 8.97933 71.3494 8.998C71.5174 9.026 71.69 9.04 71.8674 9.04ZM71.2374 2.936V4.644C71.2374 4.728 71.2794 4.77 71.3634 4.77H71.6574C72.7307 4.77 73.2674 4.42 73.2674 3.72C73.2674 3.06667 72.8007 2.74 71.8674 2.74C71.69 2.74 71.5174 2.754 71.3494 2.782C71.2747 2.80067 71.2374 2.852 71.2374 2.936ZM73.7014 5.624C74.42 5.71733 74.994 5.99267 75.4234 6.45C75.8527 6.90733 76.0674 7.444 76.0674 8.06C76.0674 9.11467 75.722 9.894 75.0314 10.398C74.35 10.8927 73.2487 11.14 71.7274 11.14C70.9527 11.14 70.1454 11.1027 69.3054 11.028C69.0814 11.0093 68.89 10.916 68.7314 10.748C68.582 10.5707 68.5074 10.3653 68.5074 10.132V1.648C68.5074 1.424 68.582 1.22333 68.7314 1.046C68.8807 0.868666 69.0674 0.770666 69.2914 0.751999C70.0847 0.677333 70.85 0.64 71.5874 0.64C74.3874 0.64 75.7874 1.52667 75.7874 3.3C75.7874 3.89733 75.596 4.406 75.2134 4.826C74.84 5.23667 74.336 5.49333 73.7014 5.596C73.692 5.596 73.6874 5.60067 73.6874 5.61C73.6874 5.61933 73.692 5.624 73.7014 5.624ZM81.3261 8.06V7.976C81.3261 7.892 81.2841 7.85 81.2001 7.85H80.7661C79.8328 7.85 79.3661 8.13 79.3661 8.69C79.3661 9.11 79.5994 9.32 80.0661 9.32C80.4301 9.32 80.7288 9.208 80.9621 8.984C81.2048 8.75067 81.3261 8.44267 81.3261 8.06ZM80.4861 3.58C81.7181 3.58 82.6094 3.804 83.1601 4.252C83.7108 4.7 83.9861 5.40933 83.9861 6.38V10.202C83.9861 10.4167 83.9068 10.6033 83.7481 10.762C83.5894 10.9207 83.4028 11 83.1881 11H82.3061C82.0821 11 81.8908 10.9253 81.7321 10.776C81.5734 10.6173 81.4894 10.426 81.4801 10.202V10.09C81.4801 10.0807 81.4754 10.076 81.4661 10.076C81.4568 10.076 81.4474 10.0807 81.4381 10.09C80.8408 10.79 80.1034 11.14 79.2261 11.14C78.5728 11.14 78.0361 10.9347 77.6161 10.524C77.1961 10.104 76.9861 9.56267 76.9861 8.9C76.9861 7.22 78.2461 6.38 80.7661 6.38H81.2001C81.2841 6.38 81.3261 6.338 81.3261 6.254V6.24C81.3261 5.68 80.9994 5.4 80.3461 5.4C79.7861 5.4 79.0628 5.484 78.1761 5.652C77.9801 5.68933 77.8028 5.64733 77.6441 5.526C77.4854 5.39533 77.4061 5.22733 77.4061 5.022V4.798C77.4061 4.56467 77.4761 4.35467 77.6161 4.168C77.7654 3.98133 77.9521 3.86933 78.1761 3.832C79.1001 3.664 79.8701 3.58 80.4861 3.58ZM90.7579 3.748C90.9726 3.72 91.1593 3.78533 91.3179 3.944C91.4766 4.10267 91.5559 4.294 91.5559 4.518V4.882C91.5559 5.09667 91.4813 5.28333 91.3319 5.442C91.1826 5.59133 90.9959 5.68 90.7719 5.708C90.0533 5.80133 89.4793 6.072 89.0499 6.52C88.6206 6.95867 88.4059 7.49533 88.4059 8.13V10.202C88.4059 10.4167 88.3266 10.6033 88.1679 10.762C88.0093 10.9207 87.8226 11 87.6079 11H86.4739C86.2593 11 86.0726 10.9207 85.9139 10.762C85.7553 10.6033 85.6759 10.4167 85.6759 10.202V4.518C85.6759 4.30333 85.7553 4.11667 85.9139 3.958C86.0726 3.79933 86.2593 3.72 86.4739 3.72H87.5379C87.7526 3.72 87.9393 3.79933 88.0979 3.958C88.2566 4.11667 88.3359 4.30333 88.3359 4.518V5.106C88.3359 5.11533 88.3406 5.12 88.3499 5.12C88.3593 5.12 88.3686 5.11533 88.3779 5.106C88.9659 4.33133 89.7593 3.87867 90.7579 3.748ZM98.1271 3.748C98.3418 3.72 98.5284 3.78533 98.6871 3.944C98.8458 4.10267 98.9251 4.294 98.9251 4.518V4.882C98.9251 5.09667 98.8504 5.28333 98.7011 5.442C98.5518 5.59133 98.3651 5.68 98.1411 5.708C97.4224 5.80133 96.8484 6.072 96.4191 6.52C95.9898 6.95867 95.7751 7.49533 95.7751 8.13V10.202C95.7751 10.4167 95.6958 10.6033 95.5371 10.762C95.3784 10.9207 95.1918 11 94.9771 11H93.8431C93.6284 11 93.4418 10.9207 93.2831 10.762C93.1244 10.6033 93.0451 10.4167 93.0451 10.202V4.518C93.0451 4.30333 93.1244 4.11667 93.2831 3.958C93.4418 3.79933 93.6284 3.72 93.8431 3.72H94.9071C95.1218 3.72 95.3084 3.79933 95.4671 3.958C95.6258 4.11667 95.7051 4.30333 95.7051 4.518V5.106C95.7051 5.11533 95.7098 5.12 95.7191 5.12C95.7284 5.12 95.7378 5.11533 95.7471 5.106C96.3351 4.33133 97.1284 3.87867 98.1271 3.748ZM102.696 3.72C102.911 3.72 103.098 3.79933 103.256 3.958C103.415 4.11667 103.494 4.30333 103.494 4.518V10.202C103.494 10.4167 103.415 10.6033 103.256 10.762C103.098 10.9207 102.911 11 102.696 11H101.492C101.278 11 101.091 10.9207 100.932 10.762C100.774 10.6033 100.694 10.4167 100.694 10.202V4.518C100.694 4.30333 100.774 4.11667 100.932 3.958C101.091 3.79933 101.278 3.72 101.492 3.72H102.696ZM102.696 0.499999C102.911 0.499999 103.098 0.579333 103.256 0.737999C103.415 0.896666 103.494 1.08333 103.494 1.298V1.662C103.494 1.87667 103.415 2.06333 103.256 2.222C103.098 2.38067 102.911 2.46 102.696 2.46H101.492C101.278 2.46 101.091 2.38067 100.932 2.222C100.774 2.06333 100.694 1.87667 100.694 1.662V1.298C100.694 1.08333 100.774 0.896666 100.932 0.737999C101.091 0.579333 101.278 0.499999 101.492 0.499999H102.696ZM109.755 6.66C109.839 6.66 109.881 6.618 109.881 6.534C109.872 6.10467 109.779 5.79667 109.601 5.61C109.433 5.42333 109.177 5.33 108.831 5.33C108.467 5.33 108.192 5.42333 108.005 5.61C107.828 5.78733 107.716 6.1 107.669 6.548C107.669 6.62267 107.707 6.66 107.781 6.66H109.755ZM108.761 3.58C111.132 3.58 112.322 4.83067 112.331 7.332C112.331 7.556 112.247 7.74733 112.079 7.906C111.911 8.05533 111.711 8.13 111.477 8.13H107.809C107.725 8.13 107.693 8.172 107.711 8.256C107.795 8.648 107.977 8.92333 108.257 9.082C108.547 9.24067 108.995 9.32 109.601 9.32C109.984 9.32 110.451 9.264 111.001 9.152C111.197 9.10533 111.375 9.14733 111.533 9.278C111.692 9.39933 111.771 9.56267 111.771 9.768V9.992C111.771 10.2253 111.697 10.44 111.547 10.636C111.407 10.8227 111.225 10.9347 111.001 10.972C110.432 11.084 109.825 11.14 109.181 11.14C107.856 11.14 106.834 10.818 106.115 10.174C105.406 9.52067 105.051 8.58267 105.051 7.36C105.051 6.14667 105.369 5.21333 106.003 4.56C106.638 3.90667 107.557 3.58 108.761 3.58ZM118.758 3.748C118.973 3.72 119.159 3.78533 119.318 3.944C119.477 4.10267 119.556 4.294 119.556 4.518V4.882C119.556 5.09667 119.481 5.28333 119.332 5.442C119.183 5.59133 118.996 5.68 118.772 5.708C118.053 5.80133 117.479 6.072 117.05 6.52C116.621 6.95867 116.406 7.49533 116.406 8.13V10.202C116.406 10.4167 116.327 10.6033 116.168 10.762C116.009 10.9207 115.823 11 115.608 11H114.474C114.259 11 114.073 10.9207 113.914 10.762C113.755 10.6033 113.676 10.4167 113.676 10.202V4.518C113.676 4.30333 113.755 4.11667 113.914 3.958C114.073 3.79933 114.259 3.72 114.474 3.72H115.538C115.753 3.72 115.939 3.79933 116.098 3.958C116.257 4.11667 116.336 4.30333 116.336 4.518V5.106C116.336 5.11533 116.341 5.12 116.35 5.12C116.359 5.12 116.369 5.11533 116.378 5.106C116.966 4.33133 117.759 3.87867 118.758 3.748ZM123.922 6.31C124.986 6.45 125.742 6.72067 126.19 7.122C126.638 7.514 126.862 8.08333 126.862 8.83C126.862 9.56733 126.596 10.1367 126.064 10.538C125.532 10.9393 124.748 11.14 123.712 11.14C122.946 11.14 122.176 11.0653 121.402 10.916C121.178 10.8693 120.991 10.7527 120.842 10.566C120.702 10.3793 120.632 10.1647 120.632 9.922V9.558C120.632 9.362 120.711 9.208 120.87 9.096C121.028 8.984 121.201 8.95133 121.388 8.998C122.088 9.166 122.746 9.25 123.362 9.25C123.875 9.25 124.132 9.10067 124.132 8.802C124.132 8.662 124.09 8.55933 124.006 8.494C123.922 8.42867 123.754 8.37733 123.502 8.34C122.466 8.172 121.714 7.88267 121.248 7.472C120.79 7.06133 120.562 6.51067 120.562 5.82C120.562 5.11067 120.832 4.56 121.374 4.168C121.924 3.776 122.75 3.58 123.852 3.58C124.58 3.58 125.252 3.62667 125.868 3.72C126.101 3.75733 126.288 3.86467 126.428 4.042C126.577 4.21933 126.652 4.42467 126.652 4.658V4.952C126.652 5.148 126.568 5.31133 126.4 5.442C126.241 5.56333 126.064 5.60533 125.868 5.568C125.298 5.456 124.715 5.4 124.118 5.4C123.81 5.4 123.595 5.43267 123.474 5.498C123.352 5.56333 123.292 5.67067 123.292 5.82C123.292 6.1 123.502 6.26333 123.922 6.31Z" fill="black"/>
</svg>
