<svg width="17" height="19" viewBox="0 0 17 19" fill="none" xmlns="http://www.w3.org/2000/svg">
<path d="M14.7616 3.6427C14.3999 3.26064 13.9703 2.95756 13.4975 2.75077C13.0247 2.54399 12.518 2.43756 12.0062 2.43756C11.4945 2.43756 10.9877 2.54399 10.5149 2.75077C10.0422 2.95756 9.6126 3.26064 9.25082 3.6427L8.49998 4.43525L7.74915 3.6427C7.01837 2.87132 6.02721 2.43796 4.99373 2.43796C3.96025 2.43796 2.9691 2.87132 2.23832 3.6427C1.50753 4.41408 1.09698 5.4603 1.09698 6.5512C1.09698 7.64209 1.50753 8.68831 2.23832 9.45969L2.98915 10.2522L8.49998 16.0692L14.0108 10.2522L14.7616 9.45969C15.1236 9.07781 15.4107 8.62439 15.6066 8.12534C15.8025 7.62629 15.9034 7.09139 15.9034 6.5512C15.9034 6.011 15.8025 5.4761 15.6066 4.97705C15.4107 4.478 15.1236 4.02458 14.7616 3.6427V3.6427Z" stroke="#F76B6B" stroke-width="2" stroke-linecap="round" stroke-linejoin="round"/>
</svg>
