<svg width="2000" height="1247" viewBox="0 0 2000 1247" fill="none" xmlns="http://www.w3.org/2000/svg">
<rect x="48" width="1920" height="1091" fill="white"/>
<rect x="44.7937" y="1082" width="1920" height="153" fill="url(#paint0_linear)"/>
<ellipse cx="1856.26" cy="1014.58" rx="17.1278" ry="19.3378" fill="#4B8038"/>
<ellipse cx="1849.08" cy="1053.26" rx="25.6916" ry="19.3378" fill="#4B8038"/>
<ellipse cx="1873.39" cy="1046.86" rx="17.1278" ry="19.3378" fill="#4B8038"/>
<ellipse cx="1844.11" cy="1042.72" rx="29.2829" ry="19.3378" fill="#4B8038"/>
<ellipse cx="1873.39" cy="1027.52" rx="17.1278" ry="19.3378" fill="#4B8038"/>
<ellipse cx="1839.13" cy="1023.39" rx="17.1278" ry="19.3378" fill="#4B8038"/>
<ellipse cx="1810.9" cy="1032.34" rx="19.4698" ry="19.3378" fill="#5C9C63"/>
<ellipse cx="1802.73" cy="1071.01" rx="29.2046" ry="19.3378" fill="#5C9C63"/>
<ellipse cx="1830.37" cy="1064.62" rx="19.4698" ry="19.3378" fill="#5C9C63"/>
<ellipse cx="1797.08" cy="1060.48" rx="33.287" ry="19.3378" fill="#5C9C63"/>
<ellipse cx="1830.37" cy="1045.28" rx="19.4698" ry="19.3378" fill="#5C9C63"/>
<ellipse cx="1791.43" cy="1041.14" rx="19.4698" ry="19.3378" fill="#5C9C63"/>
<ellipse cx="64.8979" cy="1069.34" rx="19.4698" ry="19.3378" fill="#3A8742"/>
<ellipse cx="56.7333" cy="1108.01" rx="29.2046" ry="19.3378" fill="#3A8742"/>
<ellipse cx="84.3676" cy="1101.62" rx="19.4698" ry="19.3378" fill="#3A8742"/>
<ellipse cx="51.0807" cy="1097.48" rx="33.287" ry="19.3378" fill="#3A8742"/>
<ellipse cx="84.3676" cy="1082.28" rx="19.4698" ry="19.3378" fill="#3A8742"/>
<ellipse cx="45.4283" cy="1078.14" rx="19.4698" ry="19.3378" fill="#3A8742"/>
<ellipse cx="214.549" cy="1055.5" rx="15.6058" ry="15.5" fill="#3D9546"/>
<ellipse cx="208.005" cy="1086.5" rx="23.4086" ry="15.5" fill="#3D9546"/>
<ellipse cx="230.155" cy="1081.37" rx="15.6058" ry="15.5" fill="#3D9546"/>
<ellipse cx="203.475" cy="1078.05" rx="26.6808" ry="15.5" fill="#3D9546"/>
<ellipse cx="230.155" cy="1065.87" rx="15.6058" ry="15.5" fill="#3D9546"/>
<ellipse cx="198.944" cy="1062.55" rx="15.6058" ry="15.5" fill="#3D9546"/>
<ellipse cx="1938.25" cy="1027.34" rx="21.2701" ry="19.3378" fill="#43874A"/>
<ellipse cx="1929.33" cy="1066.01" rx="31.9051" ry="19.3378" fill="#43874A"/>
<ellipse cx="1959.52" cy="1059.62" rx="21.2701" ry="19.3378" fill="#43874A"/>
<ellipse cx="1923.16" cy="1055.48" rx="36.365" ry="19.3378" fill="#43874A"/>
<ellipse cx="1959.52" cy="1040.28" rx="21.2701" ry="19.3378" fill="#43874A"/>
<ellipse cx="1916.98" cy="1036.14" rx="21.2701" ry="19.3378" fill="#43874A"/>
<path d="M1594.64 1025.04C1566.8 1031.81 1536.24 1052.96 1523.27 1065.08C1522.66 1065.65 1523.01 1066.65 1523.84 1066.76L1617.19 1078.42C1617.56 1078.47 1617.92 1078.31 1618.13 1078.01C1627.51 1064.7 1655.81 1043.87 1671.78 1033.59C1672.59 1033.07 1672.27 1031.82 1671.31 1031.74L1594.96 1025.01C1594.85 1025 1594.74 1025.01 1594.64 1025.04Z" fill="#FFD18A" stroke="#FFD08A"/>
<circle cx="1614.1" cy="1047.77" r="3.23077" fill="#FF3D3D"/>
<circle cx="1617.33" cy="1051" r="2.76923" fill="#FF9292"/>
<circle cx="1611.79" cy="1051" r="2.76923" fill="#DBDC9B"/>
<circle cx="1609.95" cy="1049.15" r="2.76923" fill="#FF6B6B"/>
<circle cx="1606.26" cy="1051" r="2.76923" fill="#FFB46F"/>
<path d="M1623.52 1050.94C1625.07 1063 1619.54 1063 1619.54 1063H1603.42C1603.25 1063 1603.08 1062.96 1602.93 1062.86C1599.42 1060.56 1599.98 1053.82 1600.2 1051.07C1600.25 1050.52 1600.72 1050.08 1601.27 1050.08H1622.54C1623.03 1050.08 1623.46 1050.45 1623.52 1050.94Z" fill="#BA7B69"/>
<path d="M1603.49 1051C1603.49 1041.77 1606.63 1039 1612.23 1039C1617.83 1039 1620.1 1041.77 1620.1 1051" stroke="#BA7B69" stroke-width="2"/>
<path d="M1052.54 977.935L1004.51 1012.56L957.045 977.935" stroke="black" stroke-width="4"/>
<rect x="51.7937" y="982" width="19" height="94" fill="#7C5246"/>
<ellipse cx="61.2886" cy="872.216" rx="30.3879" ry="39.9832" fill="#6A744D"/>
<ellipse cx="61.2886" cy="940.763" rx="53.0408" ry="71.4106" fill="#6A744D"/>
<ellipse cx="61.2886" cy="987.106" rx="61.2886" ry="46.3437" fill="#6A744D"/>
<path d="M44.7937 131H1964.79V1081H44.7937V131Z" fill="url(#paint1_linear)"/>
<path d="M1965.79 788.5C1701.29 766 997.294 910 44.7937 1064V1233.5L1965.79 1247V788.5Z" fill="#789F5A"/>
<rect x="165.794" y="971" width="20" height="105" fill="#7C5246"/>
<ellipse cx="167.794" cy="839" rx="34" ry="46" fill="#FF8B8B"/>
<ellipse cx="173.062" cy="917.755" rx="50.8284" ry="82.0864" fill="#FF8B8B"/>
<ellipse cx="173.062" cy="971.027" rx="58.7322" ry="53.272" fill="#FF8B8B"/>
<ellipse cx="234.526" cy="946.272" rx="58.7322" ry="53.272" fill="#FF8B8B"/>
<ellipse cx="219.526" cy="872.272" rx="58.7322" ry="53.272" fill="#FF8B8B"/>
<ellipse cx="133.526" cy="869.272" rx="58.7322" ry="53.272" fill="#FF8B8B"/>
<rect x="1921.74" y="777.219" width="21.6753" height="92.6989" fill="#7C5246"/>
<ellipse cx="1932.58" cy="668.983" rx="33.1149" ry="39.9832" fill="#6A744D"/>
<ellipse cx="1932.58" cy="737.53" rx="57.8006" ry="71.4106" fill="#6A744D"/>
<ellipse cx="1932.58" cy="783.873" rx="66.7886" ry="46.3437" fill="#6A744D"/>
<rect x="1806.36" y="884.176" width="19.8903" height="133.323" fill="#7C5246"/>
<ellipse cx="1816.19" cy="775.94" rx="37.384" ry="39.9832" fill="#FF8B8B"/>
<ellipse cx="1816.19" cy="844.486" rx="65.252" ry="71.4106" fill="#FF8B8B"/>
<ellipse cx="1816.19" cy="890.83" rx="75.3987" ry="46.3437" fill="#FF8B8B"/>
<rect x="112.794" y="996" width="23" height="109" fill="#7C5246"/>
<ellipse cx="124.445" cy="891.023" rx="35.3761" ry="40.0226" fill="#FFCAD7"/>
<ellipse cx="124.294" cy="953.5" rx="61.5" ry="65.5" fill="#FFCAD7"/>
<ellipse cx="172.294" cy="987.5" rx="46.5" ry="49.5" fill="#FFCAD7"/>
<ellipse cx="124.294" cy="990.5" rx="46.5" ry="49.5" fill="#FFCAD7"/>
<ellipse cx="91.2937" cy="986.5" rx="46.5" ry="49.5" fill="#FFCAD7"/>
<ellipse cx="166.294" cy="927" rx="41.5" ry="44" fill="#FFCAD7"/>
<ellipse cx="91.2937" cy="923" rx="40.5" ry="40" fill="#FFCAD7"/>
<rect x="1886.18" y="938.15" width="19.8903" height="125.85" fill="#7C5246"/>
<ellipse cx="1896.29" cy="838.5" rx="30.5" ry="31.5" fill="#FFC4D2"/>
<ellipse cx="1896.13" cy="898.461" rx="53.0408" ry="71.4106" fill="#FFC4D2"/>
<ellipse cx="1833.79" cy="916.5" rx="44" ry="42.5" fill="#FFC4D2"/>
<ellipse cx="1849.29" cy="961.5" rx="36.5" ry="34.5" fill="#FFC4D2"/>
<ellipse cx="1953.29" cy="945.5" rx="36.5" ry="34.5" fill="#FFC4D2"/>
<ellipse cx="1945.42" cy="879.705" rx="30" ry="41.6215" transform="rotate(-27 1945.42 879.705)" fill="#FFC4D2"/>
<ellipse cx="1854.29" cy="861.5" rx="36.5" ry="34.5" fill="#FFC4D2"/>
<ellipse cx="1894.97" cy="943.365" rx="51.5" ry="46.5" transform="rotate(46.5 1894.97 943.365)" fill="#FFC4D2"/>
<rect x="1720.98" y="1002.78" width="19.8903" height="92.6989" fill="#7C5246"/>
<ellipse cx="1733.18" cy="932.755" rx="30.3879" ry="30.755" fill="#F8DFDF"/>
<ellipse cx="1728.83" cy="989.929" rx="53.0408" ry="54.929" fill="#F8DFDF"/>
<ellipse cx="1697.79" cy="948" rx="31" ry="33" fill="#F8DFDF"/>
<ellipse cx="1671.79" cy="977" rx="31" ry="33" fill="#F8DFDF"/>
<ellipse cx="1771.79" cy="962" rx="31" ry="33" fill="#F8DFDF"/>
<ellipse cx="1689.79" cy="1010.5" rx="37" ry="34.5" fill="#F8DFDF"/>
<ellipse cx="1762.79" cy="1010.5" rx="37" ry="38.5" fill="#F8DFDF"/>
<defs>
<linearGradient id="paint0_linear" x1="1004.79" y1="1082" x2="1004.79" y2="1235" gradientUnits="userSpaceOnUse">
<stop stop-color="white" stop-opacity="0"/>
<stop offset="0.973958" stop-color="white"/>
</linearGradient>
<linearGradient id="paint1_linear" x1="1128.22" y1="1081" x2="1131.79" y2="-89" gradientUnits="userSpaceOnUse">
<stop stop-color="#9FD3FA"/>
<stop offset="0.493424" stop-color="#9FD3FA" stop-opacity="0"/>
</linearGradient>
</defs>
</svg>
