<svg width="35" height="35" viewBox="0 0 35 35" fill="none" xmlns="http://www.w3.org/2000/svg">
<g clip-path="url(#clip0)">
<path d="M24.6233 3.05115H10.4566C6.54461 3.05115 3.37329 6.22246 3.37329 10.1345V24.3011C3.37329 28.2132 6.54461 31.3845 10.4566 31.3845H24.6233C28.5353 31.3845 31.7066 28.2132 31.7066 24.3011V10.1345C31.7066 6.22246 28.5353 3.05115 24.6233 3.05115Z" stroke="#F76B6B" stroke-width="3" stroke-linecap="round" stroke-linejoin="round"/>
<path d="M23.2066 16.3253C23.3815 17.5043 23.1801 18.7085 22.6311 19.7664C22.0822 20.8244 21.2136 21.6823 20.1489 22.2182C19.0843 22.7541 17.8778 22.9406 16.701 22.7512C15.5242 22.5619 14.4371 22.0063 13.5943 21.1635C12.7515 20.3207 12.1959 19.2336 12.0065 18.0568C11.8172 16.88 12.0037 15.6735 12.5396 14.6089C13.0754 13.5442 13.9334 12.6756 14.9913 12.1267C16.0493 11.5777 17.2534 11.3763 18.4325 11.5512C19.6351 11.7295 20.7485 12.2899 21.6082 13.1496C22.4679 14.0093 23.0283 15.1227 23.2066 16.3253Z" stroke="#FFBD59" stroke-width="3" stroke-linecap="round" stroke-linejoin="round"/>
</g>
<defs>
<clipPath id="clip0">
<rect width="34" height="34" fill="white" transform="translate(0.540039 0.217773)"/>
</clipPath>
</defs>
</svg>
