<svg width="1920" height="1080" viewBox="0 0 1920 1080" fill="none" xmlns="http://www.w3.org/2000/svg">
<g clip-path="url(#clip0)">
<path d="M0 130H1920V1080H0V130Z" fill="url(#paint0_linear)"/>
<path d="M-3.25391 1079.42C884.585 797.372 1632.63 959.243 1917.13 1079.42C2144.73 1175.56 731.707 1119.48 -3.25391 1079.42Z" fill="#789F5A"/>
<rect x="120.878" y="987.301" width="19.8903" height="92.6989" fill="#7C5246"/>
<ellipse cx="130.823" cy="879.065" rx="30.3879" ry="39.9832" fill="#859162"/>
<ellipse cx="130.824" cy="947.612" rx="53.0408" ry="71.4106" fill="#859162"/>
<ellipse cx="130.824" cy="993.955" rx="61.2886" ry="46.3437" fill="#859162"/>
<rect x="6.5498" y="996.452" width="19.8903" height="92.6989" fill="#7C5246"/>
<ellipse cx="16.4944" cy="888.216" rx="30.3879" ry="39.9832" fill="#6A744D"/>
<ellipse cx="16.4949" cy="956.763" rx="53.0408" ry="71.4106" fill="#6A744D"/>
<ellipse cx="16.4946" cy="1003.11" rx="61.2886" ry="46.3437" fill="#6A744D"/>
<rect x="1884.14" y="791.711" width="19.8903" height="92.6989" fill="#7C5246"/>
<ellipse cx="1894.09" cy="683.475" rx="30.3879" ry="39.9832" fill="#6A744D"/>
<ellipse cx="1894.09" cy="752.022" rx="53.0408" ry="71.4106" fill="#6A744D"/>
<ellipse cx="1894.09" cy="798.366" rx="61.2886" ry="46.3437" fill="#6A744D"/>
<rect x="1761.56" y="900.176" width="19.8903" height="133.323" fill="#7C5246"/>
<ellipse cx="1771.51" cy="791.94" rx="30.3879" ry="39.9832" fill="#6A744D"/>
<ellipse cx="1771.51" cy="860.487" rx="53.0408" ry="71.4106" fill="#6A744D"/>
<ellipse cx="1771.51" cy="906.83" rx="61.2886" ry="46.3437" fill="#6A744D"/>
<rect x="57.9766" y="958.994" width="23.1179" height="125.735" fill="#7C5246"/>
<ellipse cx="69.5357" cy="818.183" rx="35.3189" ry="54.2323" fill="#9BAA72"/>
<ellipse cx="69.5353" cy="911.159" rx="61.6476" ry="96.8597" fill="#9BAA72"/>
<ellipse cx="69.5355" cy="974.018" rx="71.2337" ry="62.8595" fill="#9BAA72"/>
<ellipse cx="1811.47" cy="1030.58" rx="17.1278" ry="19.3378" fill="#9BAA72"/>
<ellipse cx="1804.29" cy="1069.26" rx="25.6916" ry="19.3378" fill="#9BAA72"/>
<ellipse cx="1828.6" cy="1062.86" rx="17.1278" ry="19.3378" fill="#9BAA72"/>
<ellipse cx="1799.31" cy="1058.72" rx="29.2829" ry="19.3378" fill="#9BAA72"/>
<ellipse cx="1828.6" cy="1043.52" rx="17.1278" ry="19.3378" fill="#9BAA72"/>
<ellipse cx="1794.34" cy="1039.39" rx="17.1278" ry="19.3378" fill="#9BAA72"/>
<ellipse cx="1770.79" cy="1043.52" rx="17.1278" ry="19.3378" fill="#9BAA72"/>
<ellipse cx="1763.61" cy="1082.2" rx="25.6916" ry="19.3378" fill="#9BAA72"/>
<ellipse cx="1787.92" cy="1075.8" rx="17.1278" ry="19.3378" fill="#9BAA72"/>
<ellipse cx="1758.63" cy="1071.66" rx="29.2829" ry="19.3378" fill="#9BAA72"/>
<ellipse cx="1787.92" cy="1056.47" rx="17.1278" ry="19.3378" fill="#9BAA72"/>
<ellipse cx="1753.66" cy="1052.33" rx="17.1278" ry="19.3378" fill="#9BAA72"/>
<ellipse cx="1686.49" cy="1074.13" rx="25.4787" ry="11.2681" fill="#9BAA72"/>
<ellipse cx="1668.41" cy="1090.53" rx="43.5603" ry="11.2681" fill="#9BAA72"/>
<ellipse cx="1711.97" cy="1081.67" rx="25.4787" ry="11.2681" fill="#9BAA72"/>
<ellipse cx="1661.01" cy="1079.26" rx="25.4787" ry="11.2681" fill="#9BAA72"/>
<rect x="1841.39" y="954.15" width="19.8903" height="125.85" fill="#7C5246"/>
<ellipse cx="1851.33" cy="845.914" rx="30.3879" ry="39.9832" fill="#859162"/>
<ellipse cx="1851.33" cy="914.461" rx="53.0408" ry="71.4106" fill="#859162"/>
<ellipse cx="1851.33" cy="960.804" rx="61.2886" ry="46.3437" fill="#859162"/>
<ellipse cx="1874.24" cy="1047.9" rx="17.1278" ry="19.3378" fill="#9BAA72"/>
<ellipse cx="1867.05" cy="1086.57" rx="25.6916" ry="19.3378" fill="#9BAA72"/>
<ellipse cx="1891.36" cy="1080.17" rx="17.1278" ry="19.3378" fill="#9BAA72"/>
<ellipse cx="1862.08" cy="1076.03" rx="29.2829" ry="19.3378" fill="#9BAA72"/>
<ellipse cx="1891.36" cy="1060.84" rx="17.1278" ry="19.3378" fill="#9BAA72"/>
<ellipse cx="1857.11" cy="1056.7" rx="17.1278" ry="19.3378" fill="#9BAA72"/>
<ellipse cx="1909.77" cy="1030.58" rx="17.1278" ry="19.3378" fill="#9BAA72"/>
<ellipse cx="1902.58" cy="1069.26" rx="25.6916" ry="19.3378" fill="#9BAA72"/>
<ellipse cx="1926.89" cy="1062.86" rx="17.1278" ry="19.3378" fill="#9BAA72"/>
<ellipse cx="1897.61" cy="1058.72" rx="29.2829" ry="19.3378" fill="#9BAA72"/>
<ellipse cx="1926.89" cy="1043.52" rx="17.1278" ry="19.3378" fill="#9BAA72"/>
<ellipse cx="1892.64" cy="1039.39" rx="17.1278" ry="19.3378" fill="#9BAA72"/>
<circle cx="1124.43" cy="315.164" r="77.9964" fill="#FFBD59" fill-opacity="0.65"/>
<rect x="1676.19" y="1001.78" width="19.8903" height="92.6989" fill="#7C5246"/>
<ellipse cx="1686.14" cy="893.542" rx="30.3879" ry="39.9832" fill="#859162"/>
<ellipse cx="1686.14" cy="962.089" rx="53.0408" ry="71.4106" fill="#859162"/>
<ellipse cx="1686.14" cy="1008.43" rx="61.2886" ry="46.3437" fill="#859162"/>
<line y1="-3.5" x2="45.8159" y2="-3.5" transform="matrix(-0.977059 -0.21297 0.306037 -0.95202 1030.13 296.535)" stroke="#FFBD59" stroke-opacity="0.65" stroke-width="7"/>
<line y1="-3.5" x2="43.3262" y2="-3.5" transform="matrix(-0.836818 -0.547481 0.694353 -0.719635 1048.26 256.217)" stroke="#FFBD59" stroke-opacity="0.65" stroke-width="7"/>
<line y1="-3.5" x2="38.893" y2="-3.5" transform="matrix(-0.347172 -0.937801 0.96991 -0.243464 1098.16 220.474)" stroke="#FFBD59" stroke-opacity="0.65" stroke-width="7"/>
<line y1="-3.5" x2="38.2535" y2="-3.5" transform="matrix(0.287644 -0.957737 0.969754 0.244083 1162.49 220.637)" stroke="#FFBD59" stroke-opacity="0.65" stroke-width="7"/>
<line y1="-3.5" x2="43.3262" y2="-3.5" transform="matrix(-0.836818 0.547481 0.694353 0.719635 1243.13 237.167)" stroke="#FFBD59" stroke-opacity="0.65" stroke-width="7"/>
<line y1="-3.5" x2="45.8159" y2="-3.5" transform="matrix(-0.977059 0.21297 0.306037 0.95202 1269.77 291.656)" stroke="#FFBD59" stroke-opacity="0.65" stroke-width="7"/>
<rect x="1908.49" y="1032.07" width="23" height="109" fill="#7C5246"/>
<ellipse cx="1925.37" cy="898.696" rx="35.3761" ry="40.0226" fill="#FFCAD7"/>
<ellipse cx="1925.22" cy="961.174" rx="61.5" ry="65.5" fill="#FFCAD7"/>
<ellipse cx="1925.22" cy="998.174" rx="46.5" ry="49.5" fill="#FFCAD7"/>
<ellipse cx="1892.22" cy="994.174" rx="46.5" ry="49.5" fill="#FFCAD7"/>
<ellipse cx="1892.22" cy="930.674" rx="40.5" ry="40" fill="#FFCAD7"/>
<rect x="-19.9307" y="952.088" width="20" height="105" fill="#7C5246"/>
<ellipse cx="-17.9307" cy="820.088" rx="34" ry="46" fill="#FF8B8B"/>
<ellipse cx="-12.6628" cy="898.843" rx="50.8284" ry="82.0864" fill="#FF8B8B"/>
<ellipse cx="-12.6624" cy="952.115" rx="58.7322" ry="53.272" fill="#FF8B8B"/>
<ellipse cx="48.8015" cy="927.36" rx="58.7322" ry="53.272" fill="#FF8B8B"/>
<ellipse cx="33.8015" cy="853.36" rx="58.7322" ry="53.272" fill="#FF8B8B"/>
<ellipse cx="-52.1985" cy="850.36" rx="58.7322" ry="53.272" fill="#FF8B8B"/>
</g>
<defs>
<linearGradient id="paint0_linear" x1="1083.42" y1="1080" x2="1087" y2="-90" gradientUnits="userSpaceOnUse">
<stop stop-color="#9FD3FA"/>
<stop offset="0.493424" stop-color="#9FD3FA" stop-opacity="0"/>
</linearGradient>
<clipPath id="clip0">
<rect width="1920" height="1080" fill="white"/>
</clipPath>
</defs>
</svg>
