<svg width="320" height="313" viewBox="0 0 320 313" fill="none" xmlns="http://www.w3.org/2000/svg">
<path d="M315 156.5C315 240.067 245.709 308 160 308C74.291 308 5 240.067 5 156.5C5 72.9325 74.291 5 160 5C245.709 5 315 72.9325 315 156.5Z" fill="#9FD3FA" stroke="#4595D1" stroke-width="10"/>
<rect x="91" y="110.087" width="136.867" height="85.8272" rx="9" fill="white" stroke="black" stroke-width="12"/>
<path d="M91.0874 111.189L158.046 146.697L225.004 111.189" stroke="black" stroke-width="12"/>
<path d="M229.471 177.116C221.371 190.598 213.788 200.099 207.69 205.665C204.616 208.472 202.19 210.027 200.504 210.712C200.131 210.863 199.839 210.957 199.616 211.014C199.575 210.813 199.535 210.55 199.506 210.212C199.356 208.445 199.641 205.617 200.744 201.608C202.93 193.662 207.908 182.561 216.032 169.04C224.132 155.558 232.672 144.303 239.824 136.998C243.433 133.31 246.453 130.874 248.69 129.602C248.786 129.547 248.879 129.496 248.967 129.448C248.966 129.549 248.964 129.654 248.961 129.765C248.888 132.337 248.155 136.147 246.594 141.066C243.501 150.81 237.572 163.634 229.471 177.116ZM199.027 211.094C199.028 211.092 199.045 211.093 199.077 211.099C199.042 211.099 199.026 211.095 199.027 211.094ZM199.772 211.533C199.796 211.563 199.805 211.582 199.803 211.584C199.802 211.586 199.791 211.57 199.772 211.533ZM250.711 128.736C250.71 128.737 250.694 128.74 250.663 128.74C250.696 128.735 250.711 128.735 250.711 128.736ZM248.796 127.619C248.782 127.591 248.777 127.575 248.777 127.574C248.778 127.573 248.785 127.587 248.796 127.619Z" fill="white" stroke="black" stroke-width="12"/>
<path d="M247.478 143.472L238.191 137.626C242.367 130.993 243.844 125.02 247.109 112.752C254.63 109.293 264.267 103.604 270.645 98.0003C270.645 98.0003 268.193 118.933 268.153 127.424C256.019 134.151 252.975 137.195 247.478 143.472Z" fill="white" stroke="black" stroke-width="12" stroke-linecap="round" stroke-linejoin="round"/>
<path d="M177.122 135.612C175.593 132.67 171.187 130.262 166.061 131.664C163.612 132.327 161.475 133.749 160 135.698C158.524 133.749 156.388 132.327 153.938 131.664C148.802 130.284 144.407 132.67 142.877 135.612C140.731 139.732 141.622 144.365 145.526 149.384C148.585 153.311 152.957 157.291 159.304 161.914C159.504 162.06 159.751 162.14 160.006 162.14C160.26 162.14 160.507 162.06 160.708 161.914C167.043 157.302 171.426 153.353 174.485 149.384C178.378 144.365 179.268 139.732 177.122 135.612V135.612Z" fill="#F76B6B"/>
</svg>
