<svg width="321" height="320" viewBox="0 0 321 320" fill="none" xmlns="http://www.w3.org/2000/svg">
<circle cx="160.045" cy="160" r="155" fill="#EAD8D3" stroke="#F5B9A8" stroke-width="10"/>
<path d="M72.3806 152.421L106.309 124.983L124.36 167.407L142.924 83.7554C143.034 83.2609 143.725 83.2243 143.886 83.7045L157.754 124.983L177.61 94.2809L190.697 188.061L240.209 155.303C240.686 154.987 241.234 155.591 240.873 156.036L174.451 237.742L148.277 219.321L116.321 229.203C116.036 229.291 115.737 229.111 115.682 228.818L100.893 150.102L72.7516 153.306C72.2546 153.363 71.9917 152.735 72.3806 152.421Z" fill="white"/>
<path d="M164.438 189.523C149.579 198.745 145.59 160.43 145.452 140.121L177.233 102.246L186.314 189.523C185.213 185.681 179.297 180.301 164.438 189.523Z" fill="#FFBD59"/>
<path d="M106.309 124.982L111.369 122.829C110.694 121.241 109.313 120.063 107.639 119.646C105.964 119.228 104.192 119.621 102.85 120.706L106.309 124.982ZM124.36 167.407L119.299 169.56L122.936 178.108L128.681 170.808L124.36 167.407ZM157.754 124.982L162.076 128.384L162.234 128.184L162.372 127.969L157.754 124.982ZM177.61 94.2806L183.058 93.5205C182.74 91.245 181.042 89.4067 178.798 88.9105C176.555 88.4142 174.24 89.3646 172.992 91.2938L177.61 94.2806ZM174.451 237.741L171.286 242.239C173.649 243.902 176.896 243.453 178.719 241.211L174.451 237.741ZM240.209 155.303L243.244 159.89L243.244 159.89L240.209 155.303ZM240.873 156.035L245.141 159.505L240.873 156.035ZM142.924 83.7552L137.554 82.5636L142.924 83.7552ZM143.886 83.7042L149.099 81.9526L143.886 83.7042ZM116.321 229.203L117.946 234.457L116.321 229.203ZM72.3806 152.42L75.8391 156.697L72.3806 152.42ZM72.7516 153.306L73.3737 158.771L72.7516 153.306ZM75.8391 156.697L109.767 129.259L102.85 120.706L68.9221 148.144L75.8391 156.697ZM101.248 127.136L119.299 169.56L129.421 165.253L111.369 122.829L101.248 127.136ZM129.729 168.598L148.293 84.9467L137.554 82.5636L118.99 166.215L129.729 168.598ZM138.672 85.4559L152.541 126.734L162.968 123.231L149.099 81.9526L138.672 85.4559ZM162.372 127.969L182.229 97.2675L172.992 91.2938L153.136 121.996L162.372 127.969ZM172.163 95.0408L185.25 188.821L196.145 187.3L183.058 93.5205L172.163 95.0408ZM193.732 192.647L243.244 159.89L237.174 150.716L187.663 183.474L193.732 192.647ZM236.605 152.566L170.184 234.272L178.719 241.211L245.141 159.505L236.605 152.566ZM177.617 233.244L151.443 214.823L145.112 223.818L171.286 242.239L177.617 233.244ZM146.652 214.066L114.696 223.948L117.946 234.457L149.902 224.575L146.652 214.066ZM121.087 227.802L106.299 149.086L95.4878 151.118L110.276 229.833L121.087 227.802ZM100.271 144.637L72.1295 147.841L73.3737 158.771L101.515 155.567L100.271 144.637ZM153.432 121.581L120.038 164.005L128.681 170.808L162.076 128.384L153.432 121.581ZM153.632 220.576L182.965 95.5368L172.256 93.0245L142.923 218.064L153.632 220.576ZM179.679 239.451L195.925 189.77L185.47 186.351L169.224 236.032L179.679 239.451ZM106.27 151.261L111.685 126.141L100.932 123.823L95.5167 148.943L106.27 151.261ZM243.244 159.89C238.47 163.048 232.995 157.007 236.605 152.566L245.141 159.505C249.473 154.175 242.903 146.926 237.174 150.716L243.244 159.89ZM148.293 84.9467C147.196 89.8922 140.286 90.2576 138.672 85.4559L149.099 81.9526C147.164 76.1905 138.871 76.629 137.554 82.5636L148.293 84.9467ZM114.696 223.948C117.55 223.066 120.536 224.866 121.087 227.802L110.276 229.833C110.938 233.356 114.521 235.516 117.946 234.457L114.696 223.948ZM68.9221 148.144C64.2546 151.918 67.4094 159.45 73.3737 158.771L72.1295 147.841C77.0998 147.275 79.7287 153.551 75.8391 156.697L68.9221 148.144Z" fill="black"/>
<path d="M236.337 263.811L185.886 197.356L199.473 188.567L236.848 263.492L236.337 263.811Z" fill="white" stroke="black" stroke-width="11"/>
<path d="M191.82 194.601C186.1 198.384 173.193 197.237 176.575 164.949C189.924 170.453 211.155 183.921 191.82 194.601Z" fill="#FFBD59"/>
<path d="M176.575 164.949L178.675 159.872C177.07 159.21 175.246 159.342 173.755 160.228C172.264 161.114 171.279 162.651 171.099 164.374L176.575 164.949ZM188.77 190.025L188.769 190.025L194.871 199.177L194.872 199.177L188.77 190.025ZM188.775 190.021C187.482 190.877 186.029 190.89 184.852 189.602C183.033 187.613 180.389 181.403 182.052 165.524L171.099 164.374C169.38 180.784 171.498 191.291 176.717 197.002C182.578 203.414 190.438 202.108 194.865 199.181L188.775 190.021ZM174.476 170.026C180.951 172.696 188.571 177.029 192.247 181.375C194.055 183.512 194.149 184.733 194.055 185.248C193.963 185.753 193.344 187.478 189.15 189.794L194.49 199.408C199.964 196.384 203.942 192.42 204.89 187.224C205.836 182.038 203.413 177.546 200.661 174.293C195.219 167.859 185.548 162.706 178.675 159.872L174.476 170.026ZM189.15 189.794C188.791 189.993 188.41 190.193 188.005 190.395L192.934 200.224C193.47 199.957 193.989 199.685 194.49 199.408L189.15 189.794Z" fill="black"/>
</svg>
