<svg width="375" height="272" viewBox="0 0 375 272" fill="none" xmlns="http://www.w3.org/2000/svg">
<path d="M399.011 0H-26.8408V230.689H399.011V0Z" fill="url(#paint0_linear)"/>
<path d="M175.495 205.661L186.149 214.069L196.676 205.661" stroke="black" stroke-width="4"/>
<path d="M-26 145.567C32.6554 140.098 188.774 175.096 400 212.524V253.719L-26 257V145.567Z" fill="#789F5A"/>
<rect width="425.852" height="37.153" transform="matrix(-1 0 0 1 399.011 234.088)" fill="url(#paint1_linear)"/>
<rect width="6.0933" height="44.7159" transform="matrix(-1 0 0 1 12.5786 172.712)" fill="#7C5246"/>
<ellipse rx="11.4524" ry="13.4101" transform="matrix(-1 0 0 1 9.56555 136.41)" fill="#FF8B8B"/>
<ellipse rx="19.9896" ry="23.9507" transform="matrix(-1 0 0 1 9.56554 159.4)" fill="#FF8B8B"/>
<ellipse rx="23.098" ry="15.5434" transform="matrix(-1 0 0 1 9.56557 174.944)" fill="#FF8B8B"/>
<ellipse rx="5.247" ry="6.48579" transform="matrix(-1 0 0 1 -2.70965 216.45)" fill="#4B8038"/>
<ellipse rx="7.87049" ry="6.48579" transform="matrix(-1 0 0 1 -0.50916 229.422)" fill="#4B8038"/>
<ellipse rx="8.97067" ry="6.48579" transform="matrix(-1 0 0 1 1.01419 225.888)" fill="#4B8038"/>
<ellipse rx="5.247" ry="6.48579" transform="matrix(-1 0 0 1 2.53754 219.402)" fill="#4B8038"/>
<ellipse rx="5.96446" ry="6.48579" transform="matrix(-1 0 0 1 11.1875 222.404)" fill="#5C9C63"/>
<ellipse rx="8.94667" ry="6.48579" transform="matrix(-1 0 0 1 13.6888 235.376)" fill="#5C9C63"/>
<ellipse rx="5.96446" ry="6.48579" transform="matrix(-1 0 0 1 5.22316 233.231)" fill="#5C9C63"/>
<ellipse rx="10.1973" ry="6.48579" transform="matrix(-1 0 0 1 15.4204 231.842)" fill="#5C9C63"/>
<ellipse rx="5.96446" ry="6.48579" transform="matrix(-1 0 0 1 5.22316 226.745)" fill="#5C9C63"/>
<ellipse rx="5.96446" ry="6.48579" transform="matrix(-1 0 0 1 17.1521 225.356)" fill="#5C9C63"/>
<ellipse rx="16.2488" ry="23.9507" transform="matrix(-1 0 0 1 -14.9222 177.503)" fill="#FFC4D2"/>
<ellipse rx="13.4792" ry="14.2543" transform="matrix(-1 0 0 1 4.17353 183.553)" fill="#FFC4D2"/>
<ellipse rx="11.1816" ry="11.5711" transform="matrix(-1 0 0 1 -0.574964 198.646)" fill="#FFC4D2"/>
<ellipse rx="11.1816" ry="11.5711" transform="matrix(-1 0 0 1 -2.10658 165.106)" fill="#FFC4D2"/>
<ellipse rx="16.5808" ry="14.9004" transform="matrix(-0.654976 0.75565 0.693472 0.720483 -14.5689 192.564)" fill="#FFC4D2"/>
<rect width="5.89343" height="28.2681" transform="matrix(-1 0 0 1 38.2397 210.732)" fill="#7C5246"/>
<ellipse rx="9.00384" ry="9.37862" transform="matrix(-1 0 0 1 34.6257 189.379)" fill="#F8DFDF"/>
<ellipse rx="15.7158" ry="16.7503" transform="matrix(-1 0 0 1 35.9137 206.814)" fill="#F8DFDF"/>
<ellipse rx="9.18519" ry="10.0632" transform="matrix(-1 0 0 1 45.1111 194.027)" fill="#F8DFDF"/>
<ellipse rx="9.18519" ry="10.0632" transform="matrix(-1 0 0 1 52.8148 202.871)" fill="#F8DFDF"/>
<ellipse rx="9.18519" ry="10.0632" transform="matrix(-1 0 0 1 23.1852 198.297)" fill="#F8DFDF"/>
<ellipse rx="10.963" ry="10.5206" transform="matrix(-1 0 0 1 47.4814 213.087)" fill="#F8DFDF"/>
<ellipse rx="10.963" ry="11.7404" transform="matrix(-1 0 0 1 25.8517 213.087)" fill="#F8DFDF"/>
<defs>
<linearGradient id="paint0_linear" x1="158.711" y1="230.689" x2="157.759" y2="-53.4221" gradientUnits="userSpaceOnUse">
<stop stop-color="#9FD3FA"/>
<stop offset="0.493424" stop-color="#9FD3FA" stop-opacity="0"/>
</linearGradient>
<linearGradient id="paint1_linear" x1="212.926" y1="0" x2="212.926" y2="37.153" gradientUnits="userSpaceOnUse">
<stop stop-color="white" stop-opacity="0"/>
<stop offset="0.973958" stop-color="white"/>
</linearGradient>
</defs>
</svg>
