<svg width="1920" height="1117" viewBox="0 0 1920 1117" fill="none" xmlns="http://www.w3.org/2000/svg">
<path d="M1922.9 0H-10.187V950H1922.9V0Z" fill="url(#paint0_linear)"/>
<path d="M908.283 846.935L956.646 881.558L1004.43 846.935" stroke="black" stroke-width="4"/>
<path d="M-6.99988 697.841C259.29 680.069 968.054 793.811 1927 915.452V1049.34L-6.99988 1060V697.841Z" fill="#789F5A"/>
<rect width="1933.09" height="153" transform="matrix(-1 0 0 1 1922.9 964)" fill="url(#paint1_linear)"/>
<rect width="20.1363" height="105" transform="matrix(-1 0 0 1 1801.08 840)" fill="#7C5246"/>
<ellipse rx="34.2318" ry="46" transform="matrix(-1 0 0 1 1799.06 708)" fill="#FF8B8B"/>
<ellipse rx="51.1749" ry="82.0864" transform="matrix(-1 0 0 1 1793.76 786.755)" fill="#FF8B8B"/>
<ellipse rx="59.1325" ry="53.272" transform="matrix(-1 0 0 1 1793.76 840.027)" fill="#FF8B8B"/>
<ellipse rx="59.1325" ry="53.272" transform="matrix(-1 0 0 1 1731.88 815.272)" fill="#FF8B8B"/>
<ellipse rx="59.1325" ry="53.272" transform="matrix(-1 0 0 1 1746.98 741.272)" fill="#FF8B8B"/>
<ellipse rx="59.1325" ry="53.272" transform="matrix(-1 0 0 1 1833.56 738.272)" fill="#FF8B8B"/>
<rect width="20.0259" height="133.323" transform="matrix(-1 0 0 1 149.329 753.176)" fill="#7C5246"/>
<ellipse rx="37.6388" ry="39.9832" transform="matrix(-1 0 0 1 139.427 644.94)" fill="#FF8B8B"/>
<ellipse rx="65.6968" ry="71.4106" transform="matrix(-1 0 0 1 139.427 713.486)" fill="#FF8B8B"/>
<ellipse rx="75.9126" ry="46.3437" transform="matrix(-1 0 0 1 139.427 759.83)" fill="#FF8B8B"/>
<rect width="23.1568" height="109" transform="matrix(-1 0 0 1 1854.44 865)" fill="#7C5246"/>
<ellipse rx="35.6173" ry="40.0226" transform="matrix(-1 0 0 1 1842.71 760.023)" fill="#FFCAD7"/>
<ellipse rx="61.9192" ry="65.5" transform="matrix(-1 0 0 1 1842.86 822.5)" fill="#FFCAD7"/>
<ellipse rx="46.817" ry="49.5" transform="matrix(-1 0 0 1 1794.53 856.5)" fill="#FFCAD7"/>
<ellipse rx="46.817" ry="49.5" transform="matrix(-1 0 0 1 1842.86 859.5)" fill="#FFCAD7"/>
<ellipse rx="46.817" ry="49.5" transform="matrix(-1 0 0 1 1876.08 855.5)" fill="#FFCAD7"/>
<ellipse rx="41.7829" ry="44" transform="matrix(-1 0 0 1 1800.57 796)" fill="#FFCAD7"/>
<ellipse rx="40.7761" ry="40" transform="matrix(-1 0 0 1 1876.08 792)" fill="#FFCAD7"/>
<ellipse rx="17.2445" ry="19.3378" transform="matrix(-1 0 0 1 99.0839 883.584)" fill="#4B8038"/>
<ellipse rx="25.8667" ry="19.3378" transform="matrix(-1 0 0 1 106.316 922.26)" fill="#4B8038"/>
<ellipse rx="17.2445" ry="19.3378" transform="matrix(-1 0 0 1 81.84 915.863)" fill="#4B8038"/>
<ellipse rx="29.4825" ry="19.3378" transform="matrix(-1 0 0 1 111.322 911.723)" fill="#4B8038"/>
<ellipse rx="17.2445" ry="19.3378" transform="matrix(-1 0 0 1 81.84 896.525)" fill="#4B8038"/>
<ellipse rx="17.2445" ry="19.3378" transform="matrix(-1 0 0 1 116.329 892.385)" fill="#4B8038"/>
<ellipse rx="19.6025" ry="19.3378" transform="matrix(-1 0 0 1 144.758 901.338)" fill="#5C9C63"/>
<ellipse rx="29.4036" ry="19.3378" transform="matrix(-1 0 0 1 152.978 940.013)" fill="#5C9C63"/>
<ellipse rx="19.6025" ry="19.3378" transform="matrix(-1 0 0 1 125.155 933.616)" fill="#5C9C63"/>
<ellipse rx="33.5139" ry="19.3378" transform="matrix(-1 0 0 1 158.669 929.477)" fill="#5C9C63"/>
<ellipse rx="19.6025" ry="19.3378" transform="matrix(-1 0 0 1 125.155 914.279)" fill="#5C9C63"/>
<ellipse rx="19.6025" ry="19.3378" transform="matrix(-1 0 0 1 164.36 910.139)" fill="#5C9C63"/>
<ellipse rx="19.6025" ry="19.3378" transform="matrix(-1 0 0 1 1902.66 938.338)" fill="#3A8742"/>
<ellipse rx="29.4036" ry="19.3378" transform="matrix(-1 0 0 1 1910.88 977.013)" fill="#3A8742"/>
<ellipse rx="19.6025" ry="19.3378" transform="matrix(-1 0 0 1 1883.06 970.616)" fill="#3A8742"/>
<ellipse rx="33.5139" ry="19.3378" transform="matrix(-1 0 0 1 1916.57 966.477)" fill="#3A8742"/>
<rect width="25.5382" height="136.299" transform="matrix(-1 0 0 1 26.0391 656.178)" fill="#7C5246"/>
<ellipse rx="39.0166" ry="45.2204" transform="matrix(-1 0 0 1 10.3781 553.22)" fill="#F8DFDF"/>
<ellipse rx="68.1017" ry="80.7643" transform="matrix(-1 0 0 1 15.9595 637.285)" fill="#F8DFDF"/>
<ellipse rx="39.8025" ry="48.5212" transform="matrix(-1 0 0 1 55.8145 575.636)" fill="#F8DFDF"/>
<ellipse rx="39.8025" ry="48.5212" transform="matrix(-1 0 0 1 89.1975 618.275)" fill="#F8DFDF"/>
<ellipse rx="39.8025" ry="48.5212" transform="matrix(-1 0 0 1 -39.1975 596.22)" fill="#F8DFDF"/>
<ellipse rx="47.5062" ry="50.7267" transform="matrix(-1 0 0 1 66.0861 667.532)" fill="#F8DFDF"/>
<ellipse rx="47.5062" ry="56.6081" transform="matrix(-1 0 0 1 -27.6422 667.532)" fill="#F8DFDF"/>
<ellipse rx="19.6025" ry="19.3378" transform="matrix(-1 0 0 1 1883.06 951.279)" fill="#3A8742"/>
<ellipse rx="19.6025" ry="19.3378" transform="matrix(-1 0 0 1 1922.26 947.139)" fill="#3A8742"/>
<ellipse rx="15.7122" ry="15.5" transform="matrix(-1 0 0 1 1751.99 924.5)" fill="#3D9546"/>
<ellipse rx="23.5682" ry="15.5" transform="matrix(-1 0 0 1 1758.58 955.5)" fill="#3D9546"/>
<ellipse rx="15.7122" ry="15.5" transform="matrix(-1 0 0 1 1736.28 950.373)" fill="#3D9546"/>
<ellipse rx="26.8627" ry="15.5" transform="matrix(-1 0 0 1 1763.14 947.054)" fill="#3D9546"/>
<ellipse rx="15.7122" ry="15.5" transform="matrix(-1 0 0 1 1736.28 934.873)" fill="#3D9546"/>
<ellipse rx="15.7122" ry="15.5" transform="matrix(-1 0 0 1 1767.7 931.554)" fill="#3D9546"/>
<ellipse rx="19.6025" ry="19.3378" transform="matrix(-1 0 0 1 1785.87 954.338)" fill="#5C9C63"/>
<ellipse rx="29.4036" ry="19.3378" transform="matrix(-1 0 0 1 1794.09 993.013)" fill="#5C9C63"/>
<ellipse rx="19.6025" ry="19.3378" transform="matrix(-1 0 0 1 1766.27 986.616)" fill="#5C9C63"/>
<ellipse rx="33.5139" ry="19.3378" transform="matrix(-1 0 0 1 1799.78 982.477)" fill="#5C9C63"/>
<ellipse rx="19.6025" ry="19.3378" transform="matrix(-1 0 0 1 1766.27 967.279)" fill="#5C9C63"/>
<ellipse rx="19.6025" ry="19.3378" transform="matrix(-1 0 0 1 1805.47 963.139)" fill="#5C9C63"/>
<rect width="20.0259" height="125.85" transform="matrix(-1 0 0 1 68.96 807.15)" fill="#7C5246"/>
<ellipse rx="30.7079" ry="31.5" transform="matrix(-1 0 0 1 58.7794 707.5)" fill="#FFC4D2"/>
<ellipse rx="53.4023" ry="71.4106" transform="matrix(-1 0 0 1 58.947 767.461)" fill="#FFC4D2"/>
<ellipse rx="44.2999" ry="42.5" transform="matrix(-1 0 0 1 121.706 785.5)" fill="#FFC4D2"/>
<ellipse rx="36.7488" ry="34.5" transform="matrix(-1 0 0 1 106.1 830.5)" fill="#FFC4D2"/>
<ellipse rx="36.7488" ry="34.5" transform="matrix(-1 0 0 1 1.39084 814.5)" fill="#FFC4D2"/>
<ellipse rx="30.1625" ry="41.6801" transform="matrix(-0.892248 -0.451545 -0.456442 0.889753 9.31865 748.705)" fill="#FFC4D2"/>
<ellipse rx="36.7488" ry="34.5" transform="matrix(-1 0 0 1 101.066 730.5)" fill="#FFC4D2"/>
<ellipse rx="51.6666" ry="46.667" transform="matrix(-0.690812 0.723035 0.727705 0.685891 60.108 812.365)" fill="#FFC4D2"/>
<ellipse rx="21.4151" ry="19.3378" transform="matrix(-1 0 0 1 16.5336 896.338)" fill="#43874A"/>
<ellipse rx="32.1226" ry="19.3378" transform="matrix(-1 0 0 1 25.5139 935.013)" fill="#43874A"/>
<ellipse rx="21.4151" ry="19.3378" transform="matrix(-1 0 0 1 -4.88142 928.616)" fill="#43874A"/>
<ellipse rx="36.6129" ry="19.3378" transform="matrix(-1 0 0 1 31.7316 924.477)" fill="#43874A"/>
<ellipse rx="21.4151" ry="19.3378" transform="matrix(-1 0 0 1 -4.88142 909.279)" fill="#43874A"/>
<ellipse rx="21.4151" ry="19.3378" transform="matrix(-1 0 0 1 37.9484 905.139)" fill="#43874A"/>
<rect width="20.0259" height="92.6989" transform="matrix(-1 0 0 1 235.284 871.778)" fill="#7C5246"/>
<ellipse rx="30.5951" ry="30.755" transform="matrix(-1 0 0 1 223.004 801.755)" fill="#F8DFDF"/>
<ellipse rx="53.4023" ry="54.929" transform="matrix(-1 0 0 1 227.38 858.929)" fill="#F8DFDF"/>
<ellipse rx="31.2113" ry="33" transform="matrix(-1 0 0 1 258.633 817)" fill="#F8DFDF"/>
<ellipse rx="31.2113" ry="33" transform="matrix(-1 0 0 1 284.81 846)" fill="#F8DFDF"/>
<ellipse rx="31.2113" ry="33" transform="matrix(-1 0 0 1 184.129 831)" fill="#F8DFDF"/>
<ellipse rx="37.2522" ry="34.5" transform="matrix(-1 0 0 1 266.687 879.5)" fill="#F8DFDF"/>
<ellipse rx="37.2522" ry="38.5" transform="matrix(-1 0 0 1 193.19 879.5)" fill="#F8DFDF"/>
<rect width="20.0259" height="92.6989" transform="matrix(-1 0 0 1 1682.37 889.778)" fill="#7C5246"/>
<ellipse rx="30.5951" ry="30.755" transform="matrix(-1 0 0 1 1670.09 819.755)" fill="#F8DFDF"/>
<ellipse rx="53.4023" ry="54.929" transform="matrix(-1 0 0 1 1674.46 876.929)" fill="#F8DFDF"/>
<ellipse rx="31.2113" ry="33" transform="matrix(-1 0 0 1 1705.72 835)" fill="#F8DFDF"/>
<ellipse rx="31.2113" ry="33" transform="matrix(-1 0 0 1 1731.89 864)" fill="#F8DFDF"/>
<ellipse rx="31.2113" ry="33" transform="matrix(-1 0 0 1 1631.21 849)" fill="#F8DFDF"/>
<ellipse rx="37.2522" ry="34.5" transform="matrix(-1 0 0 1 1713.77 897.5)" fill="#F8DFDF"/>
<ellipse rx="37.2522" ry="38.5" transform="matrix(-1 0 0 1 1640.27 897.5)" fill="#F8DFDF"/>
<defs>
<linearGradient id="paint0_linear" x1="832.094" y1="950" x2="828.54" y2="-220" gradientUnits="userSpaceOnUse">
<stop stop-color="#9FD3FA"/>
<stop offset="0.493424" stop-color="#9FD3FA" stop-opacity="0"/>
</linearGradient>
<linearGradient id="paint1_linear" x1="966.544" y1="0" x2="966.544" y2="153" gradientUnits="userSpaceOnUse">
<stop stop-color="white" stop-opacity="0"/>
<stop offset="0.973958" stop-color="white"/>
</linearGradient>
</defs>
</svg>
