<svg width="320" height="320" viewBox="0 0 320 320" fill="none" xmlns="http://www.w3.org/2000/svg">
<circle cx="160" cy="160" r="155" fill="#FFBD59" stroke="#C48321" stroke-width="10"/>
<mask id="path-2-inside-1" fill="white">
<rect x="77.5" y="87.5" width="165" height="108.64" rx="7"/>
</mask>
<rect x="77.5" y="87.5" width="165" height="108.64" rx="7" fill="#8BC9F9" stroke="black" stroke-width="30" mask="url(#path-2-inside-1)"/>
<path d="M131.627 186.403H188.803C189.276 186.403 189.684 186.734 189.781 187.197L197.817 225.517C197.948 226.138 197.473 226.722 196.839 226.722H123.187C122.548 226.722 122.073 226.131 122.211 225.507L130.65 187.188C130.751 186.729 131.157 186.403 131.627 186.403Z" fill="black" stroke="black" stroke-width="2"/>
<path d="M191.154 196.14C257.228 204.983 257.229 238.46 204.37 242.881" stroke="black" stroke-width="15"/>
<path d="M204.579 245.442C205.288 248.116 204.667 251.399 202.095 254.727C199.517 258.063 195.195 261.067 189.616 262.537C184.037 264.007 178.791 263.525 174.894 261.896C171.007 260.27 168.838 257.722 168.128 255.048C167.419 252.375 168.04 249.092 170.612 245.764C173.19 242.428 177.512 239.424 183.091 237.954C188.67 236.484 193.917 236.965 197.813 238.595C201.7 240.221 203.869 242.769 204.579 245.442Z" fill="white" stroke="black" stroke-width="15"/>
</svg>
