<svg width="1920" height="1247" viewBox="0 0 1920 1247" fill="none" xmlns="http://www.w3.org/2000/svg">
<g clip-path="url(#clip0)">
<rect width="1920" height="1247" fill="white"/>
<path d="M0 130H1920V1080H0V130Z" fill="url(#paint0_linear)"/>
<path d="M1007.75 976.935L959.713 1011.56L912.252 976.935" stroke="black" stroke-width="4"/>
<path d="M1921 787.5C1656.5 765 952.5 909 0 1063V1232.5L1921 1246V787.5Z" fill="#789F5A"/>
<path d="M1920 1094H0V1247H1920V1094Z" fill="url(#paint1_linear)"/>
<path d="M141 970H121V1075H141V970Z" fill="#7C5246"/>
<path d="M123 884C141.778 884 157 863.405 157 838C157 812.595 141.778 792 123 792C104.222 792 89 812.595 89 838C89 863.405 104.222 884 123 884Z" fill="#FF8B8B"/>
<path d="M128.268 998.841C156.34 998.841 179.096 962.09 179.096 916.755C179.096 871.42 156.34 834.669 128.268 834.669C100.196 834.669 77.4395 871.42 77.4395 916.755C77.4395 962.09 100.196 998.841 128.268 998.841Z" fill="#FF8B8B"/>
<path d="M128.268 1023.3C160.705 1023.3 187 999.448 187 970.027C187 940.606 160.705 916.755 128.268 916.755C95.831 916.755 69.5356 940.606 69.5356 970.027C69.5356 999.448 95.831 1023.3 128.268 1023.3Z" fill="#FF8B8B"/>
<path d="M189.732 998.544C222.169 998.544 248.464 974.693 248.464 945.272C248.464 915.851 222.169 892 189.732 892C157.295 892 131 915.851 131 945.272C131 974.693 157.295 998.544 189.732 998.544Z" fill="#FF8B8B"/>
<path d="M174.732 924.544C207.169 924.544 233.464 900.693 233.464 871.272C233.464 841.851 207.169 818 174.732 818C142.295 818 116 841.851 116 871.272C116 900.693 142.295 924.544 174.732 924.544Z" fill="#FF8B8B"/>
<path d="M88.7322 921.544C121.169 921.544 147.464 897.693 147.464 868.272C147.464 838.851 121.169 815 88.7322 815C56.2953 815 30 838.851 30 868.272C30 897.693 56.2953 921.544 88.7322 921.544Z" fill="#FF8B8B"/>
<path d="M26 981H7V1075H26V981Z" fill="#7C5246"/>
<path d="M16.4948 911.199C33.2776 911.199 46.8827 893.298 46.8827 871.216C46.8827 849.134 33.2776 831.233 16.4948 831.233C-0.287941 831.233 -13.8931 849.134 -13.8931 871.216C-13.8931 893.298 -0.287941 911.199 16.4948 911.199Z" fill="#6A744D"/>
<path d="M16.4949 1011.17C45.7885 1011.17 69.5357 979.202 69.5357 939.763C69.5357 900.324 45.7885 868.352 16.4949 868.352C-12.7987 868.352 -36.5459 900.324 -36.5459 939.763C-36.5459 979.202 -12.7987 1011.17 16.4949 1011.17Z" fill="#6A744D"/>
<path d="M16.4947 1032.45C50.3434 1032.45 77.7833 1011.7 77.7833 986.107C77.7833 960.512 50.3434 939.763 16.4947 939.763C-17.3541 939.763 -44.7939 960.512 -44.7939 986.107C-44.7939 1011.7 -17.3541 1032.45 16.4947 1032.45Z" fill="#6A744D"/>
<path d="M1898.63 776.219H1876.95V868.918H1898.63V776.219Z" fill="#7C5246"/>
<path d="M1887.79 707.966C1906.08 707.966 1920.9 690.065 1920.9 667.983C1920.9 645.901 1906.08 628 1887.79 628C1869.5 628 1854.68 645.901 1854.68 667.983C1854.68 690.065 1869.5 707.966 1887.79 707.966Z" fill="#6A744D"/>
<path d="M1887.79 807.941C1919.71 807.941 1945.59 775.969 1945.59 736.53C1945.59 697.091 1919.71 665.119 1887.79 665.119C1855.87 665.119 1829.99 697.091 1829.99 736.53C1829.99 775.969 1855.87 807.941 1887.79 807.941Z" fill="#6A744D"/>
<path d="M1887.79 829.218C1924.68 829.218 1954.58 808.469 1954.58 782.874C1954.58 757.279 1924.68 736.53 1887.79 736.53C1850.9 736.53 1821 757.279 1821 782.874C1821 808.469 1850.9 829.218 1887.79 829.218Z" fill="#6A744D"/>
<path d="M1781.45 883.176H1761.56V1016.5H1781.45V883.176Z" fill="#7C5246"/>
<path d="M1771.4 814.923C1792.05 814.923 1808.78 797.022 1808.78 774.94C1808.78 752.858 1792.05 734.957 1771.4 734.957C1750.75 734.957 1734.02 752.858 1734.02 774.94C1734.02 797.022 1750.75 814.923 1771.4 814.923Z" fill="#FF8B8B"/>
<path d="M1771.4 914.898C1807.44 914.898 1836.65 882.926 1836.65 843.487C1836.65 804.048 1807.44 772.076 1771.4 772.076C1735.36 772.076 1706.15 804.048 1706.15 843.487C1706.15 882.926 1735.36 914.898 1771.4 914.898Z" fill="#FF8B8B"/>
<path d="M1771.4 936.174C1813.04 936.174 1846.8 915.425 1846.8 889.83C1846.8 864.235 1813.04 843.486 1771.4 843.486C1729.76 843.486 1696 864.235 1696 889.83C1696 915.425 1729.76 936.174 1771.4 936.174Z" fill="#FF8B8B"/>
<path d="M91 995H68V1104H91V995Z" fill="#7C5246"/>
<path d="M79.651 930.046C99.1887 930.046 115.027 912.127 115.027 890.023C115.027 867.919 99.1887 850 79.651 850C60.1133 850 44.2749 867.919 44.2749 890.023C44.2749 912.127 60.1133 930.046 79.651 930.046Z" fill="#FFCAD7"/>
<path d="M79.5 1018C113.466 1018 141 988.675 141 952.5C141 916.325 113.466 887 79.5 887C45.5345 887 18 916.325 18 952.5C18 988.675 45.5345 1018 79.5 1018Z" fill="#FFCAD7"/>
<path d="M127.5 1036C153.181 1036 174 1013.84 174 986.5C174 959.162 153.181 937 127.5 937C101.819 937 81 959.162 81 986.5C81 1013.84 101.819 1036 127.5 1036Z" fill="#FFCAD7"/>
<path d="M79.5 1039C105.181 1039 126 1016.84 126 989.5C126 962.162 105.181 940 79.5 940C53.8188 940 33 962.162 33 989.5C33 1016.84 53.8188 1039 79.5 1039Z" fill="#FFCAD7"/>
<path d="M46.5 1035C72.1812 1035 93 1012.84 93 985.5C93 958.162 72.1812 936 46.5 936C20.8188 936 0 958.162 0 985.5C0 1012.84 20.8188 1035 46.5 1035Z" fill="#FFCAD7"/>
<path d="M121.5 970C144.42 970 163 950.301 163 926C163 901.699 144.42 882 121.5 882C98.5802 882 80 901.699 80 926C80 950.301 98.5802 970 121.5 970Z" fill="#FFCAD7"/>
<path d="M46.5 962C68.8675 962 87 944.091 87 922C87 899.909 68.8675 882 46.5 882C24.1325 882 6 899.909 6 922C6 944.091 24.1325 962 46.5 962Z" fill="#FFCAD7"/>
<path d="M1811.47 1032.92C1820.93 1032.92 1828.6 1024.26 1828.6 1013.58C1828.6 1002.9 1820.93 994.242 1811.47 994.242C1802.01 994.242 1794.34 1002.9 1794.34 1013.58C1794.34 1024.26 1802.01 1032.92 1811.47 1032.92Z" fill="#4B8038"/>
<path d="M1804.29 1071.6C1818.48 1071.6 1829.98 1062.94 1829.98 1052.26C1829.98 1041.58 1818.48 1032.92 1804.29 1032.92C1790.1 1032.92 1778.6 1041.58 1778.6 1052.26C1778.6 1062.94 1790.1 1071.6 1804.29 1071.6Z" fill="#4B8038"/>
<path d="M1828.6 1065.2C1838.06 1065.2 1845.73 1056.54 1845.73 1045.86C1845.73 1035.18 1838.06 1026.52 1828.6 1026.52C1819.14 1026.52 1811.47 1035.18 1811.47 1045.86C1811.47 1056.54 1819.14 1065.2 1828.6 1065.2Z" fill="#4B8038"/>
<path d="M1799.31 1061.06C1815.48 1061.06 1828.59 1052.4 1828.59 1041.72C1828.59 1031.04 1815.48 1022.38 1799.31 1022.38C1783.14 1022.38 1770.03 1031.04 1770.03 1041.72C1770.03 1052.4 1783.14 1061.06 1799.31 1061.06Z" fill="#4B8038"/>
<path d="M1828.6 1045.86C1838.06 1045.86 1845.73 1037.2 1845.73 1026.52C1845.73 1015.84 1838.06 1007.18 1828.6 1007.18C1819.14 1007.18 1811.47 1015.84 1811.47 1026.52C1811.47 1037.2 1819.14 1045.86 1828.6 1045.86Z" fill="#4B8038"/>
<path d="M1794.34 1041.73C1803.8 1041.73 1811.47 1033.07 1811.47 1022.39C1811.47 1011.71 1803.8 1003.05 1794.34 1003.05C1784.88 1003.05 1777.21 1011.71 1777.21 1022.39C1777.21 1033.07 1784.88 1041.73 1794.34 1041.73Z" fill="#4B8038"/>
<path d="M1766.1 1050.68C1776.85 1050.68 1785.57 1042.02 1785.57 1031.34C1785.57 1020.66 1776.85 1012 1766.1 1012C1755.35 1012 1746.63 1020.66 1746.63 1031.34C1746.63 1042.02 1755.35 1050.68 1766.1 1050.68Z" fill="#5C9C63"/>
<path d="M1757.94 1089.35C1774.07 1089.35 1787.14 1080.69 1787.14 1070.01C1787.14 1059.33 1774.07 1050.67 1757.94 1050.67C1741.81 1050.67 1728.74 1059.33 1728.74 1070.01C1728.74 1080.69 1741.81 1089.35 1757.94 1089.35Z" fill="#5C9C63"/>
<path d="M1785.57 1082.96C1796.32 1082.96 1805.04 1074.3 1805.04 1063.62C1805.04 1052.94 1796.32 1044.28 1785.57 1044.28C1774.82 1044.28 1766.1 1052.94 1766.1 1063.62C1766.1 1074.3 1774.82 1082.96 1785.57 1082.96Z" fill="#5C9C63"/>
<path d="M1752.29 1078.82C1770.67 1078.82 1785.58 1070.16 1785.58 1059.48C1785.58 1048.8 1770.67 1040.14 1752.29 1040.14C1733.91 1040.14 1719 1048.8 1719 1059.48C1719 1070.16 1733.91 1078.82 1752.29 1078.82Z" fill="#5C9C63"/>
<path d="M1785.57 1063.62C1796.32 1063.62 1805.04 1054.96 1805.04 1044.28C1805.04 1033.6 1796.32 1024.94 1785.57 1024.94C1774.82 1024.94 1766.1 1033.6 1766.1 1044.28C1766.1 1054.96 1774.82 1063.62 1785.57 1063.62Z" fill="#5C9C63"/>
<path d="M1746.63 1059.48C1757.38 1059.48 1766.1 1050.82 1766.1 1040.14C1766.1 1029.46 1757.38 1020.8 1746.63 1020.8C1735.88 1020.8 1727.16 1029.46 1727.16 1040.14C1727.16 1050.82 1735.88 1059.48 1746.63 1059.48Z" fill="#5C9C63"/>
<path d="M20.1041 1087.68C30.857 1087.68 39.5739 1079.02 39.5739 1068.34C39.5739 1057.66 30.857 1049 20.1041 1049C9.3512 1049 0.634277 1057.66 0.634277 1068.34C0.634277 1079.02 9.3512 1087.68 20.1041 1087.68Z" fill="#3A8742"/>
<path d="M11.9395 1126.35C28.0687 1126.35 41.1441 1117.69 41.1441 1107.01C41.1441 1096.33 28.0687 1087.67 11.9395 1087.67C-4.18979 1087.67 -17.2651 1096.33 -17.2651 1107.01C-17.2651 1117.69 -4.18979 1126.35 11.9395 1126.35Z" fill="#3A8742"/>
<path d="M39.5738 1119.96C50.3267 1119.96 59.0436 1111.3 59.0436 1100.62C59.0436 1089.94 50.3267 1081.28 39.5738 1081.28C28.8209 1081.28 20.104 1089.94 20.104 1100.62C20.104 1111.3 28.8209 1119.96 39.5738 1119.96Z" fill="#3A8742"/>
<path d="M6.287 1115.82C24.6709 1115.82 39.574 1107.16 39.574 1096.48C39.574 1085.8 24.6709 1077.14 6.287 1077.14C-12.0969 1077.14 -27 1085.8 -27 1096.48C-27 1107.16 -12.0969 1115.82 6.287 1115.82Z" fill="#3A8742"/>
<path d="M39.5738 1100.62C50.3267 1100.62 59.0436 1091.96 59.0436 1081.28C59.0436 1070.6 50.3267 1061.94 39.5738 1061.94C28.8209 1061.94 20.104 1070.6 20.104 1081.28C20.104 1091.96 28.8209 1100.62 39.5738 1100.62Z" fill="#3A8742"/>
<path d="M0.63435 1096.48C11.3872 1096.48 20.1041 1087.82 20.1041 1077.14C20.1041 1066.46 11.3872 1057.8 0.63435 1057.8C-10.1185 1057.8 -18.8354 1066.46 -18.8354 1077.14C-18.8354 1087.82 -10.1185 1096.48 0.63435 1096.48Z" fill="#3A8742"/>
<path d="M169.756 1070C178.375 1070 185.362 1063.06 185.362 1054.5C185.362 1045.94 178.375 1039 169.756 1039C161.137 1039 154.15 1045.94 154.15 1054.5C154.15 1063.06 161.137 1070 169.756 1070Z" fill="#3D9546"/>
<path d="M163.212 1101C176.14 1101 186.62 1094.06 186.62 1085.5C186.62 1076.94 176.14 1070 163.212 1070C150.284 1070 139.803 1076.94 139.803 1085.5C139.803 1094.06 150.284 1101 163.212 1101Z" fill="#3D9546"/>
<path d="M185.362 1095.87C193.981 1095.87 200.968 1088.93 200.968 1080.37C200.968 1071.81 193.981 1064.87 185.362 1064.87C176.743 1064.87 169.756 1071.81 169.756 1080.37C169.756 1088.93 176.743 1095.87 185.362 1095.87Z" fill="#3D9546"/>
<path d="M158.681 1092.55C173.416 1092.55 185.362 1085.61 185.362 1077.05C185.362 1068.49 173.416 1061.55 158.681 1061.55C143.945 1061.55 132 1068.49 132 1077.05C132 1085.61 143.945 1092.55 158.681 1092.55Z" fill="#3D9546"/>
<path d="M185.362 1080.37C193.981 1080.37 200.968 1073.43 200.968 1064.87C200.968 1056.31 193.981 1049.37 185.362 1049.37C176.743 1049.37 169.756 1056.31 169.756 1064.87C169.756 1073.43 176.743 1080.37 185.362 1080.37Z" fill="#3D9546"/>
<path d="M154.15 1077.05C162.769 1077.05 169.756 1070.11 169.756 1061.55C169.756 1052.99 162.769 1046.05 154.15 1046.05C145.531 1046.05 138.544 1052.99 138.544 1061.55C138.544 1070.11 145.531 1077.05 154.15 1077.05Z" fill="#3D9546"/>
<path d="M136.104 1103.68C146.857 1103.68 155.574 1095.02 155.574 1084.34C155.574 1073.66 146.857 1065 136.104 1065C125.351 1065 116.634 1073.66 116.634 1084.34C116.634 1095.02 125.351 1103.68 136.104 1103.68Z" fill="#5C9C63"/>
<path d="M127.94 1142.35C144.069 1142.35 157.145 1133.69 157.145 1123.01C157.145 1112.33 144.069 1103.67 127.94 1103.67C111.811 1103.67 98.7354 1112.33 98.7354 1123.01C98.7354 1133.69 111.811 1142.35 127.94 1142.35Z" fill="#5C9C63"/>
<path d="M155.574 1135.96C166.327 1135.96 175.044 1127.3 175.044 1116.62C175.044 1105.94 166.327 1097.28 155.574 1097.28C144.821 1097.28 136.104 1105.94 136.104 1116.62C136.104 1127.3 144.821 1135.96 155.574 1135.96Z" fill="#5C9C63"/>
<path d="M122.287 1131.82C140.671 1131.82 155.574 1123.16 155.574 1112.48C155.574 1101.8 140.671 1093.14 122.287 1093.14C103.903 1093.14 89 1101.8 89 1112.48C89 1123.16 103.903 1131.82 122.287 1131.82Z" fill="#5C9C63"/>
<path d="M155.574 1116.62C166.327 1116.62 175.044 1107.96 175.044 1097.28C175.044 1086.6 166.327 1077.94 155.574 1077.94C144.821 1077.94 136.104 1086.6 136.104 1097.28C136.104 1107.96 144.821 1116.62 155.574 1116.62Z" fill="#5C9C63"/>
<path d="M116.635 1112.48C127.388 1112.48 136.105 1103.82 136.105 1093.14C136.105 1082.46 127.388 1073.8 116.635 1073.8C105.882 1073.8 97.165 1082.46 97.165 1093.14C97.165 1103.82 105.882 1112.48 116.635 1112.48Z" fill="#5C9C63"/>
<path d="M1861.28 937.15H1841.39V1063H1861.28V937.15Z" fill="#7C5246"/>
<path d="M1851.5 869C1868.34 869 1882 854.897 1882 837.5C1882 820.103 1868.34 806 1851.5 806C1834.66 806 1821 820.103 1821 837.5C1821 854.897 1834.66 869 1851.5 869Z" fill="#FFC4D2"/>
<path d="M1851.33 968.872C1880.62 968.872 1904.37 936.9 1904.37 897.461C1904.37 858.022 1880.62 826.05 1851.33 826.05C1822.04 826.05 1798.29 858.022 1798.29 897.461C1798.29 936.9 1822.04 968.872 1851.33 968.872Z" fill="#FFC4D2"/>
<path d="M1789 958C1813.3 958 1833 938.972 1833 915.5C1833 892.028 1813.3 873 1789 873C1764.7 873 1745 892.028 1745 915.5C1745 938.972 1764.7 958 1789 958Z" fill="#FFC4D2"/>
<path d="M1804.5 995C1824.66 995 1841 979.554 1841 960.5C1841 941.446 1824.66 926 1804.5 926C1784.34 926 1768 941.446 1768 960.5C1768 979.554 1784.34 995 1804.5 995Z" fill="#FFC4D2"/>
<path d="M1908.5 979C1928.66 979 1945 963.554 1945 944.5C1945 925.446 1928.66 910 1908.5 910C1888.34 910 1872 925.446 1872 944.5C1872 963.554 1888.34 979 1908.5 979Z" fill="#FFC4D2"/>
<path d="M1919.53 915.79C1934.29 908.268 1937.8 885.567 1927.36 865.085C1916.92 844.604 1896.5 834.098 1881.73 841.62C1866.97 849.142 1863.46 871.843 1873.9 892.325C1884.34 912.806 1904.76 923.312 1919.53 915.79Z" fill="#FFC4D2"/>
<path d="M1809.5 895C1829.66 895 1846 879.554 1846 860.5C1846 841.446 1829.66 826 1809.5 826C1789.34 826 1773 841.446 1773 860.5C1773 879.554 1789.34 895 1809.5 895Z" fill="#FFC4D2"/>
<path d="M1816.45 974.374C1836.03 995.005 1867 997.4 1885.63 979.722C1904.26 962.044 1903.49 930.988 1883.91 910.357C1864.33 889.725 1833.36 887.33 1814.73 905.008C1796.1 922.686 1796.87 953.742 1816.45 974.374Z" fill="#FFC4D2"/>
<path d="M1893.46 1045.68C1905.21 1045.68 1914.73 1037.02 1914.73 1026.34C1914.73 1015.66 1905.21 1007 1893.46 1007C1881.71 1007 1872.19 1015.66 1872.19 1026.34C1872.19 1037.02 1881.71 1045.68 1893.46 1045.68Z" fill="#43874A"/>
<path d="M1884.54 1084.35C1902.16 1084.35 1916.44 1075.69 1916.44 1065.01C1916.44 1054.33 1902.16 1045.67 1884.54 1045.67C1866.92 1045.67 1852.63 1054.33 1852.63 1065.01C1852.63 1075.69 1866.92 1084.35 1884.54 1084.35Z" fill="#43874A"/>
<path d="M1914.73 1077.96C1926.48 1077.96 1936 1069.3 1936 1058.62C1936 1047.94 1926.48 1039.28 1914.73 1039.28C1902.98 1039.28 1893.46 1047.94 1893.46 1058.62C1893.46 1069.3 1902.98 1077.96 1914.73 1077.96Z" fill="#43874A"/>
<path d="M1878.36 1073.82C1898.44 1073.82 1914.73 1065.16 1914.73 1054.48C1914.73 1043.8 1898.44 1035.14 1878.36 1035.14C1858.28 1035.14 1842 1043.8 1842 1054.48C1842 1065.16 1858.28 1073.82 1878.36 1073.82Z" fill="#43874A"/>
<path d="M1914.73 1058.62C1926.48 1058.62 1936 1049.96 1936 1039.28C1936 1028.6 1926.48 1019.94 1914.73 1019.94C1902.98 1019.94 1893.46 1028.6 1893.46 1039.28C1893.46 1049.96 1902.98 1058.62 1914.73 1058.62Z" fill="#43874A"/>
<path d="M1872.19 1054.48C1883.94 1054.48 1893.46 1045.82 1893.46 1035.14C1893.46 1024.46 1883.94 1015.8 1872.19 1015.8C1860.44 1015.8 1850.92 1024.46 1850.92 1035.14C1850.92 1045.82 1860.44 1054.48 1872.19 1054.48Z" fill="#43874A"/>
<path d="M1549.84 1024.04C1522.01 1030.81 1491.45 1051.96 1478.48 1064.08C1477.87 1064.65 1478.22 1065.65 1479.05 1065.76L1572.39 1077.42C1572.77 1077.47 1573.12 1077.31 1573.34 1077.01C1582.72 1063.7 1611.01 1042.87 1626.98 1032.59C1627.79 1032.07 1627.48 1030.82 1626.52 1030.74L1550.16 1024.01C1550.06 1024 1549.95 1024.01 1549.84 1024.04Z" fill="#FFD18A" stroke="#FFD08A"/>
<path d="M1569.31 1050C1571.09 1050 1572.54 1048.55 1572.54 1046.77C1572.54 1044.99 1571.09 1043.54 1569.31 1043.54C1567.53 1043.54 1566.08 1044.99 1566.08 1046.77C1566.08 1048.55 1567.53 1050 1569.31 1050Z" fill="#FF3D3D"/>
<path d="M1572.54 1052.77C1574.07 1052.77 1575.31 1051.53 1575.31 1050C1575.31 1048.47 1574.07 1047.23 1572.54 1047.23C1571.01 1047.23 1569.77 1048.47 1569.77 1050C1569.77 1051.53 1571.01 1052.77 1572.54 1052.77Z" fill="#FF9292"/>
<path d="M1567 1052.77C1568.53 1052.77 1569.77 1051.53 1569.77 1050C1569.77 1048.47 1568.53 1047.23 1567 1047.23C1565.47 1047.23 1564.23 1048.47 1564.23 1050C1564.23 1051.53 1565.47 1052.77 1567 1052.77Z" fill="#DBDC9B"/>
<path d="M1565.15 1050.92C1566.68 1050.92 1567.92 1049.68 1567.92 1048.15C1567.92 1046.62 1566.68 1045.38 1565.15 1045.38C1563.62 1045.38 1562.38 1046.62 1562.38 1048.15C1562.38 1049.68 1563.62 1050.92 1565.15 1050.92Z" fill="#FF6B6B"/>
<path d="M1561.46 1052.77C1562.99 1052.77 1564.23 1051.53 1564.23 1050C1564.23 1048.47 1562.99 1047.23 1561.46 1047.23C1559.93 1047.23 1558.69 1048.47 1558.69 1050C1558.69 1051.53 1559.93 1052.77 1561.46 1052.77Z" fill="#FFB46F"/>
<path d="M1578.73 1049.94C1580.27 1062 1574.75 1062 1574.75 1062H1558.63C1558.46 1062 1558.29 1061.96 1558.14 1061.86C1554.63 1059.56 1555.18 1052.82 1555.41 1050.07C1555.46 1049.52 1555.92 1049.08 1556.48 1049.08H1577.74C1578.24 1049.08 1578.66 1049.45 1578.73 1049.94Z" fill="#BA7B69"/>
<path d="M1558.69 1050C1558.69 1040.77 1561.84 1038 1567.44 1038C1573.03 1038 1575.31 1040.77 1575.31 1050" stroke="#BA7B69" stroke-width="2"/>
<path d="M1696.08 1001.78H1676.19V1094.48H1696.08V1001.78Z" fill="#7C5246"/>
<path d="M1688.39 962.51C1705.17 962.51 1718.78 948.741 1718.78 931.755C1718.78 914.769 1705.17 901 1688.39 901C1671.61 901 1658 914.769 1658 931.755C1658 948.741 1671.61 962.51 1688.39 962.51Z" fill="#F8DFDF"/>
<path d="M1684.04 1043.86C1713.33 1043.86 1737.08 1019.27 1737.08 988.929C1737.08 958.593 1713.33 934 1684.04 934C1654.75 934 1631 958.593 1631 988.929C1631 1019.27 1654.75 1043.86 1684.04 1043.86Z" fill="#F8DFDF"/>
<path d="M1653 980C1670.12 980 1684 965.225 1684 947C1684 928.775 1670.12 914 1653 914C1635.88 914 1622 928.775 1622 947C1622 965.225 1635.88 980 1653 980Z" fill="#F8DFDF"/>
<path d="M1627 1009C1644.12 1009 1658 994.225 1658 976C1658 957.775 1644.12 943 1627 943C1609.88 943 1596 957.775 1596 976C1596 994.225 1609.88 1009 1627 1009Z" fill="#F8DFDF"/>
<path d="M1727 994C1744.12 994 1758 979.225 1758 961C1758 942.775 1744.12 928 1727 928C1709.88 928 1696 942.775 1696 961C1696 979.225 1709.88 994 1727 994Z" fill="#F8DFDF"/>
<path d="M1645 1044C1665.43 1044 1682 1028.55 1682 1009.5C1682 990.446 1665.43 975 1645 975C1624.57 975 1608 990.446 1608 1009.5C1608 1028.55 1624.57 1044 1645 1044Z" fill="#F8DFDF"/>
<path d="M1718 1048C1738.43 1048 1755 1030.76 1755 1009.5C1755 988.237 1738.43 971 1718 971C1697.57 971 1681 988.237 1681 1009.5C1681 1030.76 1697.57 1048 1718 1048Z" fill="#F8DFDF"/>
</g>
<defs>
<linearGradient id="paint0_linear" x1="1083.42" y1="1080" x2="1087" y2="-90" gradientUnits="userSpaceOnUse">
<stop stop-color="#9FD3FA"/>
<stop offset="0.493424" stop-color="#9FD3FA" stop-opacity="0"/>
</linearGradient>
<linearGradient id="paint1_linear" x1="960" y1="1094" x2="960" y2="1247" gradientUnits="userSpaceOnUse">
<stop stop-color="white" stop-opacity="0"/>
<stop offset="0.973958" stop-color="white"/>
</linearGradient>
<clipPath id="clip0">
<rect width="1920" height="1247" fill="white"/>
</clipPath>
</defs>
</svg>
